<mxfile host="Electron" modified="2023-06-19T08:55:31.986Z" agent="Mozilla/5.0 (Windows NT 10.0; Win64; x64) AppleWebKit/537.36 (KHTML, like Gecko) draw.io/21.2.8 Chrome/112.0.5615.165 Electron/24.2.0 Safari/537.36" etag="NzOeHIezHtQhrVP6A8fc" version="21.2.8" type="device" pages="4">
  <diagram name="Approach" id="md1rTnx16mjoexLZ92nW">
    <mxGraphModel dx="3018" dy="828" grid="1" gridSize="10" guides="1" tooltips="1" connect="1" arrows="1" fold="0" page="0" pageScale="1" pageWidth="827" pageHeight="1169" math="0" shadow="0">
      <root>
        <mxCell id="H6t04PI6j_Fh8mk-Xesc-0" />
        <mxCell id="H6t04PI6j_Fh8mk-Xesc-1" parent="H6t04PI6j_Fh8mk-Xesc-0" />
        <mxCell id="zv6NUj8AG9kIZEarIWbt-5" value="" style="rounded=0;whiteSpace=wrap;html=1;fillColor=default;" parent="H6t04PI6j_Fh8mk-Xesc-1" vertex="1">
          <mxGeometry x="-1313" y="527.5" width="590" height="365.5" as="geometry" />
        </mxCell>
        <mxCell id="YOF27yDCueFy_rv4FUU3-39" value="use container as a runner for the tools" style="swimlane;horizontal=0;whiteSpace=wrap;html=1;container=0;strokeWidth=3;fontSize=14;" parent="H6t04PI6j_Fh8mk-Xesc-1" vertex="1">
          <mxGeometry x="-1500" y="480" width="830" height="421" as="geometry" />
        </mxCell>
        <mxCell id="YOF27yDCueFy_rv4FUU3-43" value="" style="sketch=0;pointerEvents=1;shadow=0;dashed=0;html=1;strokeColor=default;fillColor=#CCCCCC;labelPosition=center;verticalLabelPosition=bottom;verticalAlign=top;align=center;outlineConnect=0;shape=mxgraph.veeam2.folder;strokeWidth=2;" parent="H6t04PI6j_Fh8mk-Xesc-1" vertex="1">
          <mxGeometry x="-1246" y="605" width="100" height="80" as="geometry" />
        </mxCell>
        <mxCell id="Ipo4Vqe8rxDVjrs_X-1P-0" value="" style="html=1;dashed=0;whiteSpace=wrap;shape=partialRectangle;right=0;left=0;" parent="H6t04PI6j_Fh8mk-Xesc-1" vertex="1">
          <mxGeometry x="-1440" y="140" width="250" height="150" as="geometry" />
        </mxCell>
        <mxCell id="3b6U48-lRGqcnVDzpkHG-7" value="" style="group" parent="H6t04PI6j_Fh8mk-Xesc-1" vertex="1" connectable="0">
          <mxGeometry x="-1405" y="149.99636363636364" width="90" height="36.363636363636374" as="geometry" />
        </mxCell>
        <mxCell id="3b6U48-lRGqcnVDzpkHG-2" value="«&lt;font style=&quot;font-size: 10px;&quot;&gt;compose-project&lt;/font&gt;»&lt;br&gt;runner" style="rounded=1;whiteSpace=wrap;html=1;container=0;" parent="3b6U48-lRGqcnVDzpkHG-7" vertex="1">
          <mxGeometry width="90" height="36.36363636363636" as="geometry" />
        </mxCell>
        <mxCell id="3b6U48-lRGqcnVDzpkHG-8" value="&lt;span style=&quot;color: rgb(0, 0, 0); font-family: Helvetica; font-size: 12px; font-style: normal; font-variant-ligatures: normal; font-variant-caps: normal; font-weight: 400; letter-spacing: normal; orphans: 2; text-indent: 0px; text-transform: none; widows: 2; word-spacing: 0px; -webkit-text-stroke-width: 0px; background-color: rgb(255, 255, 255); text-decoration-thickness: initial; text-decoration-style: initial; text-decoration-color: initial; float: none; display: inline !important;&quot;&gt;GitHub&lt;/span&gt;" style="text;whiteSpace=wrap;html=1;align=center;verticalAlign=middle;" parent="H6t04PI6j_Fh8mk-Xesc-1" vertex="1">
          <mxGeometry x="-1460" y="130" width="70" height="20" as="geometry" />
        </mxCell>
        <mxCell id="3b6U48-lRGqcnVDzpkHG-10" value="push to remote" style="ellipse;whiteSpace=wrap;html=1;aspect=fixed;" parent="H6t04PI6j_Fh8mk-Xesc-1" vertex="1">
          <mxGeometry x="-1280" y="150" width="80" height="80" as="geometry" />
        </mxCell>
        <mxCell id="3b6U48-lRGqcnVDzpkHG-11" value="&lt;span style=&quot;color: rgb(0, 0, 0); font-family: Helvetica; font-style: normal; font-variant-ligatures: normal; font-variant-caps: normal; font-weight: 400; letter-spacing: normal; orphans: 2; text-indent: 0px; text-transform: none; widows: 2; word-spacing: 0px; -webkit-text-stroke-width: 0px; background-color: rgb(255, 255, 255); text-decoration-thickness: initial; text-decoration-style: initial; text-decoration-color: initial; float: none; display: inline !important;&quot;&gt;&lt;font style=&quot;font-size: 15px;&quot;&gt;«&lt;/font&gt;&lt;font style=&quot;font-size: 10px;&quot;&gt;workflow&lt;/font&gt;&lt;/span&gt;&lt;span style=&quot;color: rgb(0, 0, 0); font-family: Helvetica; font-style: normal; font-variant-ligatures: normal; font-variant-caps: normal; font-weight: 400; letter-spacing: normal; orphans: 2; text-indent: 0px; text-transform: none; widows: 2; word-spacing: 0px; -webkit-text-stroke-width: 0px; background-color: rgb(255, 255, 255); text-decoration-thickness: initial; text-decoration-style: initial; text-decoration-color: initial; float: none; display: inline !important;&quot;&gt;&lt;font style=&quot;font-size: 16px;&quot;&gt;»&lt;/font&gt;&lt;/span&gt;" style="text;whiteSpace=wrap;html=1;align=center;verticalAlign=middle;container=0;fillColor=none;" parent="H6t04PI6j_Fh8mk-Xesc-1" vertex="1">
          <mxGeometry x="-1277" y="160" width="74.99999999999999" height="13.636363636363637" as="geometry" />
        </mxCell>
        <mxCell id="3b6U48-lRGqcnVDzpkHG-12" value="" style="curved=1;endArrow=open;html=1;rounded=0;entryX=0.112;entryY=0.18;entryDx=0;entryDy=0;endFill=0;exitX=1;exitY=0.5;exitDx=0;exitDy=0;entryPerimeter=0;" parent="H6t04PI6j_Fh8mk-Xesc-1" source="3b6U48-lRGqcnVDzpkHG-2" target="3b6U48-lRGqcnVDzpkHG-10" edge="1">
          <mxGeometry width="50" height="50" relative="1" as="geometry">
            <mxPoint x="-1210" y="210" as="sourcePoint" />
            <mxPoint x="-1160" y="160" as="targetPoint" />
            <Array as="points">
              <mxPoint x="-1290" y="150" />
            </Array>
          </mxGeometry>
        </mxCell>
        <mxCell id="ZGeKg3C4WIO0-1UWcHtv-0" value="Setup Container with Tools" style="swimlane;horizontal=0;whiteSpace=wrap;html=1;container=0;strokeWidth=3;fontSize=14;" parent="H6t04PI6j_Fh8mk-Xesc-1" vertex="1">
          <mxGeometry x="-1500" y="60" width="830" height="360" as="geometry" />
        </mxCell>
        <mxCell id="YOF27yDCueFy_rv4FUU3-29" value="Developer" style="shape=umlActor;verticalLabelPosition=bottom;verticalAlign=top;html=1;outlineConnect=0;" parent="ZGeKg3C4WIO0-1UWcHtv-0" vertex="1">
          <mxGeometry x="110" y="247" width="30" height="60" as="geometry" />
        </mxCell>
        <mxCell id="uJLmGz6MF_zUvUvH0iBD-44" value="&lt;span style=&quot;color: rgb(0, 0, 0); font-family: Helvetica; font-size: 14px; font-style: normal; font-variant-ligatures: normal; font-variant-caps: normal; font-weight: 700; letter-spacing: normal; orphans: 2; text-indent: 0px; text-transform: none; widows: 2; word-spacing: 0px; -webkit-text-stroke-width: 0px; text-decoration-thickness: initial; text-decoration-style: initial; text-decoration-color: initial; float: none; display: inline !important;&quot;&gt;Remote Host&lt;/span&gt;" style="text;whiteSpace=wrap;html=1;align=center;verticalAlign=middle;labelBackgroundColor=none;fillColor=#B3B3B3;strokeColor=default;" parent="H6t04PI6j_Fh8mk-Xesc-1" vertex="1">
          <mxGeometry x="-1030" y="90" width="222" height="30" as="geometry" />
        </mxCell>
        <mxCell id="uJLmGz6MF_zUvUvH0iBD-45" value="" style="group" parent="H6t04PI6j_Fh8mk-Xesc-1" vertex="1" connectable="0">
          <mxGeometry x="-1405" y="191.63636363636363" width="90" height="36.363636363636374" as="geometry" />
        </mxCell>
        <mxCell id="uJLmGz6MF_zUvUvH0iBD-46" value="configs" style="rounded=1;whiteSpace=wrap;html=1;container=0;" parent="uJLmGz6MF_zUvUvH0iBD-45" vertex="1">
          <mxGeometry width="90" height="36.36363636363636" as="geometry" />
        </mxCell>
        <mxCell id="uJLmGz6MF_zUvUvH0iBD-47" value="" style="curved=1;endArrow=open;html=1;rounded=0;entryX=0.108;entryY=0.833;entryDx=0;entryDy=0;endFill=0;exitX=1;exitY=0.5;exitDx=0;exitDy=0;entryPerimeter=0;" parent="H6t04PI6j_Fh8mk-Xesc-1" source="uJLmGz6MF_zUvUvH0iBD-46" target="3b6U48-lRGqcnVDzpkHG-10" edge="1">
          <mxGeometry width="50" height="50" relative="1" as="geometry">
            <mxPoint x="-1170" y="210" as="sourcePoint" />
            <mxPoint x="-945" y="221" as="targetPoint" />
            <Array as="points">
              <mxPoint x="-1300" y="230" />
            </Array>
          </mxGeometry>
        </mxCell>
        <mxCell id="YOF27yDCueFy_rv4FUU3-28" value="" style="curved=1;endArrow=open;html=1;rounded=0;endFill=0;entryX=0;entryY=0.5;entryDx=0;entryDy=0;" parent="H6t04PI6j_Fh8mk-Xesc-1" source="YOF27yDCueFy_rv4FUU3-29" target="VCI6QuGKAmMOsfggPppL-1" edge="1">
          <mxGeometry width="50" height="50" relative="1" as="geometry">
            <mxPoint x="-1360" y="790" as="sourcePoint" />
            <mxPoint x="-528" y="181" as="targetPoint" />
          </mxGeometry>
        </mxCell>
        <mxCell id="YOF27yDCueFy_rv4FUU3-32" value="docker compose up" style="edgeLabel;html=1;align=center;verticalAlign=middle;resizable=0;points=[];" parent="YOF27yDCueFy_rv4FUU3-28" vertex="1" connectable="0">
          <mxGeometry x="-0.1246" y="-4" relative="1" as="geometry">
            <mxPoint x="-2" y="-6" as="offset" />
          </mxGeometry>
        </mxCell>
        <mxCell id="YOF27yDCueFy_rv4FUU3-33" value="" style="group" parent="H6t04PI6j_Fh8mk-Xesc-1" vertex="1" connectable="0">
          <mxGeometry x="-1405" y="239.63636363636363" width="90" height="36.363636363636374" as="geometry" />
        </mxCell>
        <mxCell id="YOF27yDCueFy_rv4FUU3-34" value="tools" style="rounded=1;whiteSpace=wrap;html=1;container=0;" parent="YOF27yDCueFy_rv4FUU3-33" vertex="1">
          <mxGeometry width="90" height="36.36363636363636" as="geometry" />
        </mxCell>
        <mxCell id="YOF27yDCueFy_rv4FUU3-35" value="" style="curved=1;endArrow=open;html=1;rounded=0;entryX=0.108;entryY=0.833;entryDx=0;entryDy=0;endFill=0;exitX=1.013;exitY=0.613;exitDx=0;exitDy=0;entryPerimeter=0;exitPerimeter=0;" parent="H6t04PI6j_Fh8mk-Xesc-1" source="YOF27yDCueFy_rv4FUU3-34" edge="1">
          <mxGeometry width="50" height="50" relative="1" as="geometry">
            <mxPoint x="-1305" y="220" as="sourcePoint" />
            <mxPoint x="-1261" y="227" as="targetPoint" />
            <Array as="points">
              <mxPoint x="-1290" y="240" />
            </Array>
          </mxGeometry>
        </mxCell>
        <mxCell id="uJLmGz6MF_zUvUvH0iBD-43" value="" style="rounded=0;whiteSpace=wrap;html=1;" parent="H6t04PI6j_Fh8mk-Xesc-1" vertex="1">
          <mxGeometry x="-1030" y="122" width="222" height="240" as="geometry" />
        </mxCell>
        <mxCell id="uJLmGz6MF_zUvUvH0iBD-28" value="" style="sketch=0;pointerEvents=1;shadow=0;dashed=0;html=1;strokeColor=none;fillColor=#808080;labelPosition=center;verticalLabelPosition=bottom;verticalAlign=top;align=center;outlineConnect=0;shape=mxgraph.veeam2.folder;" parent="H6t04PI6j_Fh8mk-Xesc-1" vertex="1">
          <mxGeometry x="-891" y="125" width="70" height="50" as="geometry" />
        </mxCell>
        <mxCell id="uJLmGz6MF_zUvUvH0iBD-33" value="&lt;span style=&quot;color: rgb(0, 0, 0); font-family: Helvetica; font-size: 12px; font-style: normal; font-variant-ligatures: normal; font-variant-caps: normal; font-weight: 400; letter-spacing: normal; orphans: 2; text-indent: 0px; text-transform: none; widows: 2; word-spacing: 0px; -webkit-text-stroke-width: 0px; background-color: rgb(255, 255, 255); text-decoration-thickness: initial; text-decoration-style: initial; text-decoration-color: initial; float: none; display: inline !important;&quot;&gt;sopsage&lt;/span&gt;" style="text;whiteSpace=wrap;html=1;align=center;verticalAlign=middle;" parent="H6t04PI6j_Fh8mk-Xesc-1" vertex="1">
          <mxGeometry x="-881" y="143" width="50" height="20" as="geometry" />
        </mxCell>
        <mxCell id="uJLmGz6MF_zUvUvH0iBD-34" value="" style="sketch=0;pointerEvents=1;shadow=0;dashed=0;html=1;strokeColor=none;fillColor=#808080;labelPosition=center;verticalLabelPosition=bottom;verticalAlign=top;align=center;outlineConnect=0;shape=mxgraph.veeam2.folder;" parent="H6t04PI6j_Fh8mk-Xesc-1" vertex="1">
          <mxGeometry x="-970" y="185" width="70" height="50" as="geometry" />
        </mxCell>
        <mxCell id="uJLmGz6MF_zUvUvH0iBD-35" value="&lt;span style=&quot;color: rgb(0, 0, 0); font-family: Helvetica; font-size: 12px; font-style: normal; font-variant-ligatures: normal; font-variant-caps: normal; font-weight: 400; letter-spacing: normal; orphans: 2; text-indent: 0px; text-transform: none; widows: 2; word-spacing: 0px; -webkit-text-stroke-width: 0px; background-color: rgb(255, 255, 255); text-decoration-thickness: initial; text-decoration-style: initial; text-decoration-color: initial; float: none; display: inline !important;&quot;&gt;configs&lt;/span&gt;" style="text;whiteSpace=wrap;html=1;align=center;verticalAlign=middle;" parent="H6t04PI6j_Fh8mk-Xesc-1" vertex="1">
          <mxGeometry x="-960" y="203" width="50" height="20" as="geometry" />
        </mxCell>
        <mxCell id="uJLmGz6MF_zUvUvH0iBD-38" style="edgeStyle=orthogonalEdgeStyle;rounded=0;orthogonalLoop=1;jettySize=auto;html=1;entryX=1;entryY=0.5;entryDx=0;entryDy=0;exitX=0.5;exitY=1;exitDx=0;exitDy=0;endArrow=none;endFill=0;" parent="H6t04PI6j_Fh8mk-Xesc-1" source="uJLmGz6MF_zUvUvH0iBD-33" target="uJLmGz6MF_zUvUvH0iBD-35" edge="1">
          <mxGeometry relative="1" as="geometry" />
        </mxCell>
        <mxCell id="uJLmGz6MF_zUvUvH0iBD-36" value="" style="sketch=0;pointerEvents=1;shadow=0;dashed=0;html=1;strokeColor=none;fillColor=#808080;labelPosition=center;verticalLabelPosition=bottom;verticalAlign=top;align=center;outlineConnect=0;shape=mxgraph.veeam2.folder;" parent="H6t04PI6j_Fh8mk-Xesc-1" vertex="1">
          <mxGeometry x="-970" y="243" width="70" height="50" as="geometry" />
        </mxCell>
        <mxCell id="uJLmGz6MF_zUvUvH0iBD-37" value="&lt;span style=&quot;color: rgb(0, 0, 0); font-family: Helvetica; font-size: 12px; font-style: normal; font-variant-ligatures: normal; font-variant-caps: normal; font-weight: 400; letter-spacing: normal; orphans: 2; text-indent: 0px; text-transform: none; widows: 2; word-spacing: 0px; -webkit-text-stroke-width: 0px; background-color: rgb(255, 255, 255); text-decoration-thickness: initial; text-decoration-style: initial; text-decoration-color: initial; float: none; display: inline !important;&quot;&gt;tools&lt;/span&gt;" style="text;whiteSpace=wrap;html=1;align=center;verticalAlign=middle;" parent="H6t04PI6j_Fh8mk-Xesc-1" vertex="1">
          <mxGeometry x="-960" y="261" width="50" height="20" as="geometry" />
        </mxCell>
        <mxCell id="uJLmGz6MF_zUvUvH0iBD-39" style="edgeStyle=orthogonalEdgeStyle;rounded=0;orthogonalLoop=1;jettySize=auto;html=1;entryX=1;entryY=0.5;entryDx=0;entryDy=0;exitX=0.5;exitY=1;exitDx=0;exitDy=0;endArrow=none;endFill=0;" parent="H6t04PI6j_Fh8mk-Xesc-1" source="uJLmGz6MF_zUvUvH0iBD-33" target="uJLmGz6MF_zUvUvH0iBD-37" edge="1">
          <mxGeometry relative="1" as="geometry">
            <Array as="points">
              <mxPoint x="-856" y="271" />
            </Array>
          </mxGeometry>
        </mxCell>
        <mxCell id="VCI6QuGKAmMOsfggPppL-1" value="Start sopsage container" style="ellipse;whiteSpace=wrap;html=1;aspect=fixed;" parent="H6t04PI6j_Fh8mk-Xesc-1" vertex="1">
          <mxGeometry x="-1058" y="301" width="68" height="68" as="geometry" />
        </mxCell>
        <mxCell id="YOF27yDCueFy_rv4FUU3-36" value="" style="sketch=0;pointerEvents=1;shadow=0;dashed=0;html=1;strokeColor=none;fillColor=#808080;labelPosition=center;verticalLabelPosition=bottom;verticalAlign=top;align=center;outlineConnect=0;shape=mxgraph.veeam2.folder;" parent="H6t04PI6j_Fh8mk-Xesc-1" vertex="1">
          <mxGeometry x="-970" y="305" width="70" height="50" as="geometry" />
        </mxCell>
        <mxCell id="YOF27yDCueFy_rv4FUU3-37" value="&lt;span style=&quot;color: rgb(0, 0, 0); font-family: Helvetica; font-size: 12px; font-style: normal; font-variant-ligatures: normal; font-variant-caps: normal; font-weight: 400; letter-spacing: normal; orphans: 2; text-indent: 0px; text-transform: none; widows: 2; word-spacing: 0px; -webkit-text-stroke-width: 0px; background-color: rgb(255, 255, 255); text-decoration-thickness: initial; text-decoration-style: initial; text-decoration-color: initial; float: none; display: inline !important;&quot;&gt;runner&lt;/span&gt;" style="text;whiteSpace=wrap;html=1;align=center;verticalAlign=middle;" parent="H6t04PI6j_Fh8mk-Xesc-1" vertex="1">
          <mxGeometry x="-960" y="325" width="50" height="20" as="geometry" />
        </mxCell>
        <mxCell id="YOF27yDCueFy_rv4FUU3-38" style="edgeStyle=orthogonalEdgeStyle;rounded=0;orthogonalLoop=1;jettySize=auto;html=1;exitX=0.5;exitY=1;exitDx=0;exitDy=0;endArrow=none;endFill=0;entryX=1;entryY=0.5;entryDx=0;entryDy=0;" parent="H6t04PI6j_Fh8mk-Xesc-1" source="uJLmGz6MF_zUvUvH0iBD-33" target="YOF27yDCueFy_rv4FUU3-37" edge="1">
          <mxGeometry relative="1" as="geometry">
            <mxPoint x="-1004" y="175" as="sourcePoint" />
            <mxPoint x="-950" y="281" as="targetPoint" />
            <Array as="points">
              <mxPoint x="-856" y="335" />
            </Array>
          </mxGeometry>
        </mxCell>
        <mxCell id="uJLmGz6MF_zUvUvH0iBD-42" value="" style="curved=1;endArrow=open;html=1;rounded=0;exitX=1;exitY=0.5;exitDx=0;exitDy=0;endFill=0;entryX=0;entryY=0.25;entryDx=0;entryDy=0;" parent="H6t04PI6j_Fh8mk-Xesc-1" source="3b6U48-lRGqcnVDzpkHG-10" target="uJLmGz6MF_zUvUvH0iBD-43" edge="1">
          <mxGeometry width="50" height="50" relative="1" as="geometry">
            <mxPoint x="-810" y="180" as="sourcePoint" />
            <mxPoint x="-620" y="170" as="targetPoint" />
            <Array as="points">
              <mxPoint x="-1110" y="157" />
            </Array>
          </mxGeometry>
        </mxCell>
        <mxCell id="zv6NUj8AG9kIZEarIWbt-3" style="edgeStyle=orthogonalEdgeStyle;rounded=0;orthogonalLoop=1;jettySize=auto;html=1;endArrow=open;endFill=0;" parent="H6t04PI6j_Fh8mk-Xesc-1" source="VCI6QuGKAmMOsfggPppL-1" target="YOF27yDCueFy_rv4FUU3-37" edge="1">
          <mxGeometry relative="1" as="geometry" />
        </mxCell>
        <mxCell id="YOF27yDCueFy_rv4FUU3-0" value="&lt;span style=&quot;font-weight: normal;&quot;&gt;«&lt;/span&gt;&lt;font style=&quot;font-size: 10px; font-weight: normal;&quot;&gt;running&lt;/font&gt;&lt;span style=&quot;font-weight: normal;&quot;&gt;»&lt;br&gt;&lt;/span&gt;Docker Container" style="swimlane;whiteSpace=wrap;html=1;startSize=30;" parent="H6t04PI6j_Fh8mk-Xesc-1" vertex="1">
          <mxGeometry x="-949" y="540" width="200" height="341" as="geometry" />
        </mxCell>
        <mxCell id="YOF27yDCueFy_rv4FUU3-4" value="AGE" style="whiteSpace=wrap;html=1;" parent="YOF27yDCueFy_rv4FUU3-0" vertex="1">
          <mxGeometry x="102" y="54.5" width="80" height="65" as="geometry" />
        </mxCell>
        <mxCell id="zv6NUj8AG9kIZEarIWbt-17" style="orthogonalLoop=1;jettySize=auto;html=1;endArrow=open;endFill=0;edgeStyle=entityRelationEdgeStyle;curved=1;" parent="H6t04PI6j_Fh8mk-Xesc-1" source="YOF27yDCueFy_rv4FUU3-40" target="YOF27yDCueFy_rv4FUU3-43" edge="1">
          <mxGeometry relative="1" as="geometry">
            <mxPoint x="-1380" y="600" as="sourcePoint" />
          </mxGeometry>
        </mxCell>
        <mxCell id="YOF27yDCueFy_rv4FUU3-40" value="Developer" style="shape=umlActor;verticalLabelPosition=bottom;verticalAlign=top;html=1;outlineConnect=0;" parent="H6t04PI6j_Fh8mk-Xesc-1" vertex="1">
          <mxGeometry x="-1420" y="610" width="30" height="60" as="geometry" />
        </mxCell>
        <mxCell id="YOF27yDCueFy_rv4FUU3-57" value="age-keygen" style="ellipse;whiteSpace=wrap;html=1;aspect=fixed;" parent="H6t04PI6j_Fh8mk-Xesc-1" vertex="1">
          <mxGeometry x="-999" y="595" width="90" height="90" as="geometry" />
        </mxCell>
        <mxCell id="YOF27yDCueFy_rv4FUU3-60" value="" style="curved=1;endArrow=open;html=1;rounded=0;entryX=0;entryY=0.5;entryDx=0;entryDy=0;endFill=0;exitX=1;exitY=0.5;exitDx=0;exitDy=0;exitPerimeter=0;" parent="H6t04PI6j_Fh8mk-Xesc-1" source="YOF27yDCueFy_rv4FUU3-56" target="YOF27yDCueFy_rv4FUU3-57" edge="1">
          <mxGeometry width="50" height="50" relative="1" as="geometry">
            <mxPoint x="-1039" y="740" as="sourcePoint" />
            <mxPoint x="-986" y="705" as="targetPoint" />
            <Array as="points">
              <mxPoint x="-1079" y="620" />
            </Array>
          </mxGeometry>
        </mxCell>
        <mxCell id="YOF27yDCueFy_rv4FUU3-62" value="docker exec" style="edgeLabel;html=1;align=center;verticalAlign=middle;resizable=0;points=[];" parent="YOF27yDCueFy_rv4FUU3-60" vertex="1" connectable="0">
          <mxGeometry x="0.1121" y="-15" relative="1" as="geometry">
            <mxPoint as="offset" />
          </mxGeometry>
        </mxCell>
        <mxCell id="YOF27yDCueFy_rv4FUU3-61" value="" style="curved=1;endArrow=open;html=1;rounded=0;entryX=0;entryY=0.5;entryDx=0;entryDy=0;endFill=0;exitX=1;exitY=0.5;exitDx=0;exitDy=0;" parent="H6t04PI6j_Fh8mk-Xesc-1" source="YOF27yDCueFy_rv4FUU3-57" target="YOF27yDCueFy_rv4FUU3-4" edge="1">
          <mxGeometry width="50" height="50" relative="1" as="geometry">
            <mxPoint x="-1009" y="770" as="sourcePoint" />
            <mxPoint x="-956" y="735" as="targetPoint" />
            <Array as="points">
              <mxPoint x="-880" y="620" />
            </Array>
          </mxGeometry>
        </mxCell>
        <mxCell id="z9yeCm5QqY4VIdfzjjV5-11" value="" style="curved=1;endArrow=open;html=1;rounded=0;endFill=0;exitX=0.5;exitY=1;exitDx=0;exitDy=0;entryX=1;entryY=0;entryDx=0;entryDy=38.99999999999999;entryPerimeter=0;" parent="H6t04PI6j_Fh8mk-Xesc-1" source="YOF27yDCueFy_rv4FUU3-4" target="IzYCcbDgoI7C0lgPeTR9-2" edge="1">
          <mxGeometry width="50" height="50" relative="1" as="geometry">
            <mxPoint x="-1210" y="700" as="sourcePoint" />
            <mxPoint x="-820" y="730" as="targetPoint" />
            <Array as="points">
              <mxPoint x="-790" y="720" />
            </Array>
          </mxGeometry>
        </mxCell>
        <mxCell id="YOF27yDCueFy_rv4FUU3-56" value="" style="points=[[0.25,0,0],[0.5,0,0],[0.75,0,0],[1,0.25,0],[1,0.5,0],[1,0.75,0],[0.75,1,0],[0.5,1,0],[0.25,1,0],[0,0.75,0],[0,0.5,0],[0,0.25,0]];shape=mxgraph.bpmn.task;whiteSpace=wrap;rectStyle=rounded;size=10;html=1;container=1;expand=0;collapsible=0;taskMarker=script;" parent="H6t04PI6j_Fh8mk-Xesc-1" vertex="1">
          <mxGeometry x="-1220" y="624" width="53" height="52" as="geometry" />
        </mxCell>
        <mxCell id="zv6NUj8AG9kIZEarIWbt-6" value="&lt;span style=&quot;border-color: var(--border-color); color: rgb(0, 0, 0); font-family: Helvetica; font-size: 12px; font-style: normal; font-variant-ligatures: normal; font-variant-caps: normal; font-weight: 400; letter-spacing: normal; orphans: 2; text-indent: 0px; text-transform: none; widows: 2; word-spacing: 0px; -webkit-text-stroke-width: 0px; text-decoration-thickness: initial; text-decoration-style: initial; text-decoration-color: initial; background-color: rgb(255, 255, 255); float: none; display: inline !important;&quot;&gt;generate-keys.sh&lt;/span&gt;" style="text;whiteSpace=wrap;html=1;spacing=0;align=center;verticalAlign=middle;" parent="YOF27yDCueFy_rv4FUU3-56" vertex="1">
          <mxGeometry x="-3.5" y="18.5" width="60" height="35" as="geometry" />
        </mxCell>
        <mxCell id="zv6NUj8AG9kIZEarIWbt-4" value="&lt;span style=&quot;color: rgb(0, 0, 0); font-family: Helvetica; font-size: 14px; font-style: normal; font-variant-ligatures: normal; font-variant-caps: normal; font-weight: 700; letter-spacing: normal; orphans: 2; text-indent: 0px; text-transform: none; widows: 2; word-spacing: 0px; -webkit-text-stroke-width: 0px; text-decoration-thickness: initial; text-decoration-style: initial; text-decoration-color: initial; float: none; display: inline !important;&quot;&gt;Remote Host&lt;/span&gt;" style="text;whiteSpace=wrap;html=1;align=center;verticalAlign=middle;labelBackgroundColor=none;fillColor=#B3B3B3;strokeColor=default;" parent="H6t04PI6j_Fh8mk-Xesc-1" vertex="1">
          <mxGeometry x="-1313" y="495" width="590" height="30" as="geometry" />
        </mxCell>
        <mxCell id="YOF27yDCueFy_rv4FUU3-53" value="&lt;span style=&quot;color: rgb(0, 0, 0); font-family: Helvetica; font-size: 12px; font-style: normal; font-variant-ligatures: normal; font-variant-caps: normal; font-weight: 400; letter-spacing: normal; orphans: 2; text-indent: 0px; text-transform: none; widows: 2; word-spacing: 0px; -webkit-text-stroke-width: 0px; text-decoration-thickness: initial; text-decoration-style: initial; text-decoration-color: initial; float: none; display: inline !important;&quot;&gt;tools&lt;/span&gt;" style="text;whiteSpace=wrap;html=1;align=center;verticalAlign=middle;fillColor=none;labelBackgroundColor=none;" parent="H6t04PI6j_Fh8mk-Xesc-1" vertex="1">
          <mxGeometry x="-1191" y="602" width="40" height="20" as="geometry" />
        </mxCell>
        <mxCell id="IzYCcbDgoI7C0lgPeTR9-13" value="" style="curved=1;endArrow=open;html=1;rounded=0;endFill=0;exitX=0.5;exitY=1;exitDx=0;exitDy=0;entryX=1;entryY=0.5;entryDx=0;entryDy=0;entryPerimeter=0;" parent="H6t04PI6j_Fh8mk-Xesc-1" source="YOF27yDCueFy_rv4FUU3-4" target="IzYCcbDgoI7C0lgPeTR9-10" edge="1">
          <mxGeometry width="50" height="50" relative="1" as="geometry">
            <mxPoint x="-797" y="683" as="sourcePoint" />
            <mxPoint x="-843" y="752" as="targetPoint" />
            <Array as="points">
              <mxPoint x="-780" y="730" />
            </Array>
          </mxGeometry>
        </mxCell>
        <mxCell id="zv6NUj8AG9kIZEarIWbt-16" value="" style="group" parent="H6t04PI6j_Fh8mk-Xesc-1" vertex="1" connectable="0">
          <mxGeometry x="-1230" y="802" width="80" height="67" as="geometry" />
        </mxCell>
        <mxCell id="zv6NUj8AG9kIZEarIWbt-7" value="" style="sketch=0;pointerEvents=1;shadow=0;dashed=0;html=1;strokeColor=default;fillColor=#CCCCCC;labelPosition=center;verticalLabelPosition=bottom;verticalAlign=top;align=center;outlineConnect=0;shape=mxgraph.veeam2.folder;strokeWidth=2;" parent="zv6NUj8AG9kIZEarIWbt-16" vertex="1">
          <mxGeometry width="80" height="67" as="geometry" />
        </mxCell>
        <mxCell id="zv6NUj8AG9kIZEarIWbt-9" value="" style="group" parent="zv6NUj8AG9kIZEarIWbt-16" vertex="1" connectable="0">
          <mxGeometry x="21" y="6" width="50" height="58" as="geometry" />
        </mxCell>
        <mxCell id="z9yeCm5QqY4VIdfzjjV5-1" value="" style="whiteSpace=wrap;html=1;shape=mxgraph.basic.document;container=0;" parent="zv6NUj8AG9kIZEarIWbt-9" vertex="1">
          <mxGeometry x="2" y="10" width="47" height="48" as="geometry" />
        </mxCell>
        <mxCell id="z9yeCm5QqY4VIdfzjjV5-4" value="" style="sketch=0;pointerEvents=1;shadow=0;dashed=0;html=1;strokeColor=none;fillColor=#FF3333;labelPosition=center;verticalLabelPosition=bottom;verticalAlign=top;outlineConnect=0;align=center;shape=mxgraph.office.security.key_permissions;fontSize=10;rotation=90;container=0;" parent="zv6NUj8AG9kIZEarIWbt-9" vertex="1">
          <mxGeometry x="17" y="9" width="10" height="20" as="geometry" />
        </mxCell>
        <mxCell id="zv6NUj8AG9kIZEarIWbt-8" value="Private-Key" style="text;whiteSpace=wrap;html=1;align=center;verticalAlign=middle;spacing=0;" parent="zv6NUj8AG9kIZEarIWbt-9" vertex="1">
          <mxGeometry y="26" width="50" height="30" as="geometry" />
        </mxCell>
        <mxCell id="zv6NUj8AG9kIZEarIWbt-15" value="" style="group" parent="H6t04PI6j_Fh8mk-Xesc-1" vertex="1" connectable="0">
          <mxGeometry x="-1230" y="701" width="80" height="67" as="geometry" />
        </mxCell>
        <mxCell id="zv6NUj8AG9kIZEarIWbt-10" value="" style="sketch=0;pointerEvents=1;shadow=0;dashed=0;html=1;strokeColor=default;fillColor=#CCCCCC;labelPosition=center;verticalLabelPosition=bottom;verticalAlign=top;align=center;outlineConnect=0;shape=mxgraph.veeam2.folder;strokeWidth=2;" parent="zv6NUj8AG9kIZEarIWbt-15" vertex="1">
          <mxGeometry width="80" height="67" as="geometry" />
        </mxCell>
        <mxCell id="zv6NUj8AG9kIZEarIWbt-11" value="" style="group" parent="zv6NUj8AG9kIZEarIWbt-15" vertex="1" connectable="0">
          <mxGeometry x="21" y="5" width="50" height="58" as="geometry" />
        </mxCell>
        <mxCell id="zv6NUj8AG9kIZEarIWbt-12" value="" style="whiteSpace=wrap;html=1;shape=mxgraph.basic.document;container=0;" parent="zv6NUj8AG9kIZEarIWbt-11" vertex="1">
          <mxGeometry x="2" y="10" width="47" height="48" as="geometry" />
        </mxCell>
        <mxCell id="zv6NUj8AG9kIZEarIWbt-13" value="" style="sketch=0;pointerEvents=1;shadow=0;dashed=0;html=1;strokeColor=none;fillColor=#006633;labelPosition=center;verticalLabelPosition=bottom;verticalAlign=top;outlineConnect=0;align=center;shape=mxgraph.office.security.key_permissions;fontSize=10;rotation=90;container=0;" parent="zv6NUj8AG9kIZEarIWbt-11" vertex="1">
          <mxGeometry x="17" y="9" width="10" height="20" as="geometry" />
        </mxCell>
        <mxCell id="zv6NUj8AG9kIZEarIWbt-14" value="Public-Key" style="text;whiteSpace=wrap;html=1;align=center;verticalAlign=middle;spacing=0;" parent="zv6NUj8AG9kIZEarIWbt-11" vertex="1">
          <mxGeometry y="26" width="50" height="30" as="geometry" />
        </mxCell>
        <mxCell id="IzYCcbDgoI7C0lgPeTR9-6" style="edgeStyle=orthogonalEdgeStyle;rounded=0;orthogonalLoop=1;jettySize=auto;html=1;fontFamily=Helvetica;fontSize=12;fontColor=default;endArrow=none;endFill=0;" parent="H6t04PI6j_Fh8mk-Xesc-1" source="IzYCcbDgoI7C0lgPeTR9-2" target="zv6NUj8AG9kIZEarIWbt-10" edge="1">
          <mxGeometry relative="1" as="geometry" />
        </mxCell>
        <mxCell id="IzYCcbDgoI7C0lgPeTR9-7" value="" style="group" parent="H6t04PI6j_Fh8mk-Xesc-1" vertex="1" connectable="0">
          <mxGeometry x="-937" y="703" width="120" height="77" as="geometry" />
        </mxCell>
        <mxCell id="IzYCcbDgoI7C0lgPeTR9-5" value="" style="group" parent="IzYCcbDgoI7C0lgPeTR9-7" vertex="1" connectable="0">
          <mxGeometry x="27" width="60" height="62" as="geometry" />
        </mxCell>
        <mxCell id="IzYCcbDgoI7C0lgPeTR9-2" value="" style="shape=cylinder3;whiteSpace=wrap;html=1;boundedLbl=1;backgroundOutline=1;size=15;strokeColor=#B3B3B3;" parent="IzYCcbDgoI7C0lgPeTR9-5" vertex="1">
          <mxGeometry x="4" width="52.5" height="62" as="geometry" />
        </mxCell>
        <mxCell id="IzYCcbDgoI7C0lgPeTR9-3" value="«v&lt;font style=&quot;font-size: 10px;&quot;&gt;olume&lt;/font&gt;»" style="text;whiteSpace=wrap;html=1;align=center;verticalAlign=middle;spacing=0;" parent="IzYCcbDgoI7C0lgPeTR9-5" vertex="1">
          <mxGeometry y="4" width="60" height="16" as="geometry" />
        </mxCell>
        <mxCell id="IzYCcbDgoI7C0lgPeTR9-4" value="&lt;span style=&quot;border-color: var(--border-color); color: rgb(0, 0, 0); font-family: Helvetica; font-size: 12px; font-style: normal; font-variant-ligatures: normal; font-variant-caps: normal; font-weight: 400; letter-spacing: normal; orphans: 2; text-indent: 0px; text-transform: none; widows: 2; word-spacing: 0px; -webkit-text-stroke-width: 0px; text-decoration-thickness: initial; text-decoration-style: initial; text-decoration-color: initial; background-color: rgb(255, 255, 255); float: none; display: inline !important;&quot;&gt;/sopsage/keys/public&lt;/span&gt;" style="text;whiteSpace=wrap;html=1;spacing=0;align=center;verticalAlign=middle;" parent="IzYCcbDgoI7C0lgPeTR9-7" vertex="1">
          <mxGeometry y="62" width="120" height="15" as="geometry" />
        </mxCell>
        <mxCell id="IzYCcbDgoI7C0lgPeTR9-8" value="" style="group" parent="H6t04PI6j_Fh8mk-Xesc-1" vertex="1" connectable="0">
          <mxGeometry x="-940" y="797" width="120" height="77" as="geometry" />
        </mxCell>
        <mxCell id="IzYCcbDgoI7C0lgPeTR9-9" value="" style="group" parent="IzYCcbDgoI7C0lgPeTR9-8" vertex="1" connectable="0">
          <mxGeometry x="27" width="60" height="62" as="geometry" />
        </mxCell>
        <mxCell id="IzYCcbDgoI7C0lgPeTR9-10" value="" style="shape=cylinder3;whiteSpace=wrap;html=1;boundedLbl=1;backgroundOutline=1;size=15;strokeColor=#B3B3B3;" parent="IzYCcbDgoI7C0lgPeTR9-9" vertex="1">
          <mxGeometry x="4" width="52.5" height="62" as="geometry" />
        </mxCell>
        <mxCell id="IzYCcbDgoI7C0lgPeTR9-11" value="«v&lt;font style=&quot;font-size: 10px;&quot;&gt;olume&lt;/font&gt;»" style="text;whiteSpace=wrap;html=1;align=center;verticalAlign=middle;spacing=0;" parent="IzYCcbDgoI7C0lgPeTR9-9" vertex="1">
          <mxGeometry y="4" width="60" height="16" as="geometry" />
        </mxCell>
        <mxCell id="IzYCcbDgoI7C0lgPeTR9-12" value="&lt;span style=&quot;border-color: var(--border-color); color: rgb(0, 0, 0); font-family: Helvetica; font-size: 12px; font-style: normal; font-variant-ligatures: normal; font-variant-caps: normal; font-weight: 400; letter-spacing: normal; orphans: 2; text-indent: 0px; text-transform: none; widows: 2; word-spacing: 0px; -webkit-text-stroke-width: 0px; text-decoration-thickness: initial; text-decoration-style: initial; text-decoration-color: initial; background-color: rgb(255, 255, 255); float: none; display: inline !important;&quot;&gt;/sopsage/keys/private&lt;/span&gt;" style="text;whiteSpace=wrap;html=1;spacing=0;align=center;verticalAlign=middle;" parent="IzYCcbDgoI7C0lgPeTR9-8" vertex="1">
          <mxGeometry y="62" width="120" height="15" as="geometry" />
        </mxCell>
        <mxCell id="IzYCcbDgoI7C0lgPeTR9-14" style="edgeStyle=orthogonalEdgeStyle;rounded=0;orthogonalLoop=1;jettySize=auto;html=1;fontFamily=Helvetica;fontSize=12;fontColor=default;endArrow=none;endFill=0;exitX=0;exitY=0;exitDx=0;exitDy=38.99999999999999;exitPerimeter=0;" parent="H6t04PI6j_Fh8mk-Xesc-1" source="IzYCcbDgoI7C0lgPeTR9-10" target="zv6NUj8AG9kIZEarIWbt-7" edge="1">
          <mxGeometry relative="1" as="geometry">
            <mxPoint x="-896" y="744" as="sourcePoint" />
            <mxPoint x="-1140" y="745" as="targetPoint" />
          </mxGeometry>
        </mxCell>
      </root>
    </mxGraphModel>
  </diagram>
  <diagram id="82pWjgwxtjp0GuuOkkBa" name="Setup-Process">
    <mxGraphModel dx="2182" dy="1274" grid="1" gridSize="10" guides="1" tooltips="1" connect="1" arrows="1" fold="1" page="1" pageScale="1" pageWidth="827" pageHeight="1169" math="0" shadow="0">
      <root>
        <mxCell id="0" />
        <mxCell id="1" parent="0" />
        <mxCell id="GMTRytyDHXY1ILTxqJ32-25" value="Setup Process" style="whiteSpace=wrap;html=1;fillColor=none;verticalAlign=top;align=left;" vertex="1" parent="1">
          <mxGeometry x="330" y="10" width="420" height="650" as="geometry" />
        </mxCell>
        <mxCell id="kkoaAQ_79MInz7EXqMqi-1" value="push artifacts" style="ellipse;whiteSpace=wrap;html=1;aspect=fixed;" vertex="1" parent="1">
          <mxGeometry x="440" y="70" width="80" height="80" as="geometry" />
        </mxCell>
        <mxCell id="GMTRytyDHXY1ILTxqJ32-5" value="" style="group" vertex="1" connectable="0" parent="1">
          <mxGeometry x="620" y="40" width="90" height="110" as="geometry" />
        </mxCell>
        <mxCell id="GMTRytyDHXY1ILTxqJ32-3" value="&lt;span style=&quot;color: rgb(0, 0, 0); font-family: Helvetica; font-size: 10px; font-style: normal; font-variant-ligatures: normal; font-variant-caps: normal; font-weight: 700; letter-spacing: normal; orphans: 2; text-indent: 0px; text-transform: none; widows: 2; word-spacing: 0px; -webkit-text-stroke-width: 0px; text-decoration-thickness: initial; text-decoration-style: initial; text-decoration-color: initial; float: none; display: inline !important;&quot;&gt;Remote Host&lt;/span&gt;" style="text;whiteSpace=wrap;html=1;align=center;verticalAlign=middle;labelBackgroundColor=none;fillColor=#B3B3B3;strokeColor=default;fontSize=10;" vertex="1" parent="GMTRytyDHXY1ILTxqJ32-5">
          <mxGeometry width="90" height="30" as="geometry" />
        </mxCell>
        <mxCell id="GMTRytyDHXY1ILTxqJ32-4" value="" style="rounded=0;whiteSpace=wrap;html=1;" vertex="1" parent="GMTRytyDHXY1ILTxqJ32-5">
          <mxGeometry y="32" width="90" height="78" as="geometry" />
        </mxCell>
        <mxCell id="GMTRytyDHXY1ILTxqJ32-8" value="" style="endArrow=open;html=1;endFill=0;entryX=0;entryY=0.5;entryDx=0;entryDy=0;curved=1;exitX=1;exitY=0.5;exitDx=0;exitDy=0;" edge="1" parent="1" source="3gaGantrEd44mSZklZXL-1" target="kkoaAQ_79MInz7EXqMqi-1">
          <mxGeometry width="50" height="50" relative="1" as="geometry">
            <mxPoint x="210" y="240" as="sourcePoint" />
            <mxPoint x="260" y="190" as="targetPoint" />
            <Array as="points">
              <mxPoint x="370" y="80" />
            </Array>
          </mxGeometry>
        </mxCell>
        <mxCell id="GMTRytyDHXY1ILTxqJ32-9" value="" style="endArrow=open;html=1;endFill=0;entryX=0;entryY=0.5;entryDx=0;entryDy=0;curved=1;exitX=1;exitY=0.5;exitDx=0;exitDy=0;" edge="1" parent="1" source="kkoaAQ_79MInz7EXqMqi-1" target="GMTRytyDHXY1ILTxqJ32-4">
          <mxGeometry width="50" height="50" relative="1" as="geometry">
            <mxPoint x="220" y="250" as="sourcePoint" />
            <mxPoint x="270" y="120" as="targetPoint" />
            <Array as="points">
              <mxPoint x="570" y="130" />
            </Array>
          </mxGeometry>
        </mxCell>
        <mxCell id="GMTRytyDHXY1ILTxqJ32-10" value="Create directory for private key" style="ellipse;whiteSpace=wrap;html=1;aspect=fixed;" vertex="1" parent="1">
          <mxGeometry x="350" y="730" width="80" height="80" as="geometry" />
        </mxCell>
        <mxCell id="GMTRytyDHXY1ILTxqJ32-11" value="«tools»&lt;br&gt;Generate Keys" style="ellipse;whiteSpace=wrap;html=1;aspect=fixed;" vertex="1" parent="1">
          <mxGeometry x="440" y="380" width="80" height="80" as="geometry" />
        </mxCell>
        <mxCell id="GMTRytyDHXY1ILTxqJ32-12" value="Create group to read private key" style="ellipse;whiteSpace=wrap;html=1;aspect=fixed;" vertex="1" parent="1">
          <mxGeometry x="360" y="960" width="80" height="80" as="geometry" />
        </mxCell>
        <mxCell id="GMTRytyDHXY1ILTxqJ32-13" value="Add group to directory" style="ellipse;whiteSpace=wrap;html=1;aspect=fixed;" vertex="1" parent="1">
          <mxGeometry x="650" y="870" width="80" height="80" as="geometry" />
        </mxCell>
        <mxCell id="GMTRytyDHXY1ILTxqJ32-14" value="Set group permissions on directory" style="ellipse;whiteSpace=wrap;html=1;aspect=fixed;" vertex="1" parent="1">
          <mxGeometry x="474" y="840" width="80" height="80" as="geometry" />
        </mxCell>
        <mxCell id="GMTRytyDHXY1ILTxqJ32-15" value="Add workflow user to group" style="ellipse;whiteSpace=wrap;html=1;aspect=fixed;" vertex="1" parent="1">
          <mxGeometry x="490" y="1060" width="80" height="80" as="geometry" />
        </mxCell>
        <mxCell id="GMTRytyDHXY1ILTxqJ32-16" value="«tools»&lt;br&gt;Encrypt configs" style="ellipse;whiteSpace=wrap;html=1;aspect=fixed;" vertex="1" parent="1">
          <mxGeometry x="440" y="280" width="80" height="80" as="geometry" />
        </mxCell>
        <mxCell id="GMTRytyDHXY1ILTxqJ32-17" value="«tools»&lt;br&gt;Decrypt configs" style="ellipse;whiteSpace=wrap;html=1;aspect=fixed;" vertex="1" parent="1">
          <mxGeometry x="490" y="560" width="80" height="80" as="geometry" />
        </mxCell>
        <mxCell id="GMTRytyDHXY1ILTxqJ32-18" value="Setup secure storage of private key" style="ellipse;whiteSpace=wrap;html=1;aspect=fixed;" vertex="1" parent="1">
          <mxGeometry x="440" y="170" width="80" height="80" as="geometry" />
        </mxCell>
        <mxCell id="GMTRytyDHXY1ILTxqJ32-20" value="" style="group" vertex="1" connectable="0" parent="1">
          <mxGeometry x="40" y="95" width="110" height="30" as="geometry" />
        </mxCell>
        <mxCell id="3gaGantrEd44mSZklZXL-1" value="" style="html=1;dashed=0;whiteSpace=wrap;shape=partialRectangle;right=0;left=0;" vertex="1" parent="GMTRytyDHXY1ILTxqJ32-20">
          <mxGeometry width="110" height="30" as="geometry" />
        </mxCell>
        <mxCell id="2Ws7cqVcj_5c9mzygCSu-2" value="&lt;span style=&quot;color: rgb(0, 0, 0); font-family: Helvetica; font-size: 12px; font-style: normal; font-variant-ligatures: normal; font-variant-caps: normal; font-weight: 400; letter-spacing: normal; orphans: 2; text-indent: 0px; text-transform: none; widows: 2; word-spacing: 0px; -webkit-text-stroke-width: 0px; background-color: rgb(255, 255, 255); text-decoration-thickness: initial; text-decoration-style: initial; text-decoration-color: initial; float: none; display: inline !important;&quot;&gt;GitHub&lt;/span&gt;" style="text;whiteSpace=wrap;html=1;align=center;verticalAlign=middle;" vertex="1" parent="GMTRytyDHXY1ILTxqJ32-20">
          <mxGeometry x="20" y="5" width="70" height="20" as="geometry" />
        </mxCell>
        <mxCell id="GMTRytyDHXY1ILTxqJ32-21" value="" style="endArrow=open;html=1;endFill=0;entryX=0;entryY=0.75;entryDx=0;entryDy=0;curved=1;exitX=1;exitY=0.5;exitDx=0;exitDy=0;" edge="1" parent="1" source="GMTRytyDHXY1ILTxqJ32-18" target="GMTRytyDHXY1ILTxqJ32-4">
          <mxGeometry width="50" height="50" relative="1" as="geometry">
            <mxPoint x="530" y="120" as="sourcePoint" />
            <mxPoint x="630" y="121" as="targetPoint" />
            <Array as="points">
              <mxPoint x="580" y="140" />
            </Array>
          </mxGeometry>
        </mxCell>
        <mxCell id="GMTRytyDHXY1ILTxqJ32-22" value="" style="endArrow=open;html=1;endFill=0;curved=1;exitX=0.913;exitY=0.261;exitDx=0;exitDy=0;entryX=0.25;entryY=1;entryDx=0;entryDy=0;exitPerimeter=0;" edge="1" parent="1" source="GMTRytyDHXY1ILTxqJ32-11" target="GMTRytyDHXY1ILTxqJ32-4">
          <mxGeometry width="50" height="50" relative="1" as="geometry">
            <mxPoint x="540" y="300" as="sourcePoint" />
            <mxPoint x="960" y="510" as="targetPoint" />
            <Array as="points">
              <mxPoint x="590" y="340" />
            </Array>
          </mxGeometry>
        </mxCell>
        <mxCell id="GMTRytyDHXY1ILTxqJ32-23" value="" style="endArrow=open;html=1;endFill=0;curved=1;exitX=1;exitY=0.5;exitDx=0;exitDy=0;entryX=0.106;entryY=1.011;entryDx=0;entryDy=0;entryPerimeter=0;" edge="1" parent="1" source="GMTRytyDHXY1ILTxqJ32-16" target="GMTRytyDHXY1ILTxqJ32-4">
          <mxGeometry width="50" height="50" relative="1" as="geometry">
            <mxPoint x="610" y="420" as="sourcePoint" />
            <mxPoint x="670" y="150" as="targetPoint" />
            <Array as="points">
              <mxPoint x="590" y="260" />
            </Array>
          </mxGeometry>
        </mxCell>
        <mxCell id="GMTRytyDHXY1ILTxqJ32-24" value="" style="endArrow=open;html=1;endFill=0;curved=1;exitX=1;exitY=0.5;exitDx=0;exitDy=0;entryX=0.5;entryY=1;entryDx=0;entryDy=0;" edge="1" parent="1" source="GMTRytyDHXY1ILTxqJ32-17" target="GMTRytyDHXY1ILTxqJ32-4">
          <mxGeometry width="50" height="50" relative="1" as="geometry">
            <mxPoint x="720" y="450" as="sourcePoint" />
            <mxPoint x="800" y="310" as="targetPoint" />
            <Array as="points">
              <mxPoint x="680" y="390" />
            </Array>
          </mxGeometry>
        </mxCell>
        <mxCell id="GMTRytyDHXY1ILTxqJ32-26" value="" style="endArrow=open;html=1;endFill=0;entryX=0;entryY=0.75;entryDx=0;entryDy=0;curved=1;exitX=1;exitY=0.5;exitDx=0;exitDy=0;" edge="1" parent="1" source="GMTRytyDHXY1ILTxqJ32-27">
          <mxGeometry width="50" height="50" relative="1" as="geometry">
            <mxPoint x="210" y="220" as="sourcePoint" />
            <mxPoint x="440" y="210" as="targetPoint" />
            <Array as="points">
              <mxPoint x="400" y="219" />
            </Array>
          </mxGeometry>
        </mxCell>
        <mxCell id="GMTRytyDHXY1ILTxqJ32-27" value="&lt;span style=&quot;color: rgb(0, 0, 0); font-family: Helvetica; font-size: 12px; font-style: normal; font-variant-ligatures: normal; font-variant-caps: normal; font-weight: 400; letter-spacing: normal; orphans: 2; text-indent: 0px; text-transform: none; widows: 2; word-spacing: 0px; -webkit-text-stroke-width: 0px; background-color: rgb(255, 255, 255); text-decoration-thickness: initial; text-decoration-style: initial; text-decoration-color: initial; float: none; display: inline !important;&quot;&gt;directory-path + group-name + workflow-user +&lt;br&gt;permissions&lt;br&gt;&lt;/span&gt;" style="text;whiteSpace=wrap;html=1;align=left;verticalAlign=middle;" vertex="1" parent="1">
          <mxGeometry x="40" y="175" width="90" height="70" as="geometry" />
        </mxCell>
        <mxCell id="GMTRytyDHXY1ILTxqJ32-28" value="" style="endArrow=open;html=1;endFill=0;entryX=0;entryY=0.5;entryDx=0;entryDy=0;curved=1;exitX=1;exitY=0.5;exitDx=0;exitDy=0;" edge="1" parent="1" source="GMTRytyDHXY1ILTxqJ32-29" target="GMTRytyDHXY1ILTxqJ32-11">
          <mxGeometry width="50" height="50" relative="1" as="geometry">
            <mxPoint x="150" y="220" as="sourcePoint" />
            <mxPoint x="450" y="110" as="targetPoint" />
            <Array as="points">
              <mxPoint x="320" y="440" />
            </Array>
          </mxGeometry>
        </mxCell>
        <mxCell id="GMTRytyDHXY1ILTxqJ32-29" value="&lt;span style=&quot;color: rgb(0, 0, 0); font-family: Helvetica; font-size: 12px; font-style: normal; font-variant-ligatures: normal; font-variant-caps: normal; font-weight: 400; letter-spacing: normal; orphans: 2; text-indent: 0px; text-transform: none; widows: 2; word-spacing: 0px; -webkit-text-stroke-width: 0px; background-color: rgb(255, 255, 255); text-decoration-thickness: initial; text-decoration-style: initial; text-decoration-color: initial; float: none; display: inline !important;&quot;&gt;private-key-directory-path +&amp;nbsp;&lt;br&gt;public-key-directory-path&lt;br&gt;&lt;/span&gt;" style="text;whiteSpace=wrap;html=1;align=left;verticalAlign=middle;" vertex="1" parent="1">
          <mxGeometry x="40" y="385" width="160" height="70" as="geometry" />
        </mxCell>
        <mxCell id="GMTRytyDHXY1ILTxqJ32-30" value="" style="endArrow=open;html=1;endFill=0;entryX=0;entryY=0.587;entryDx=0;entryDy=0;curved=1;entryPerimeter=0;exitX=1;exitY=0.5;exitDx=0;exitDy=0;" edge="1" parent="1" source="GMTRytyDHXY1ILTxqJ32-31" target="GMTRytyDHXY1ILTxqJ32-16">
          <mxGeometry width="50" height="50" relative="1" as="geometry">
            <mxPoint x="150" y="350" as="sourcePoint" />
            <mxPoint x="450" y="230" as="targetPoint" />
            <Array as="points">
              <mxPoint x="310" y="260" />
            </Array>
          </mxGeometry>
        </mxCell>
        <mxCell id="GMTRytyDHXY1ILTxqJ32-31" value="&lt;span style=&quot;color: rgb(0, 0, 0); font-family: Helvetica; font-size: 12px; font-style: normal; font-variant-ligatures: normal; font-variant-caps: normal; font-weight: 400; letter-spacing: normal; orphans: 2; text-indent: 0px; text-transform: none; widows: 2; word-spacing: 0px; -webkit-text-stroke-width: 0px; background-color: rgb(255, 255, 255); text-decoration-thickness: initial; text-decoration-style: initial; text-decoration-color: initial; float: none; display: inline !important;&quot;&gt;config-file-full-filepath +&lt;br&gt;public-key-full-filepath +&lt;br&gt;keys-to-encrypt&lt;br&gt;&lt;/span&gt;" style="text;whiteSpace=wrap;html=1;align=left;verticalAlign=middle;" vertex="1" parent="1">
          <mxGeometry x="40" y="280" width="130" height="70" as="geometry" />
        </mxCell>
        <mxCell id="GMTRytyDHXY1ILTxqJ32-32" value="&lt;span style=&quot;color: rgb(0, 0, 0); font-family: Helvetica; font-size: 12px; font-style: normal; font-variant-ligatures: normal; font-variant-caps: normal; font-weight: 400; letter-spacing: normal; orphans: 2; text-indent: 0px; text-transform: none; widows: 2; word-spacing: 0px; -webkit-text-stroke-width: 0px; background-color: rgb(255, 255, 255); text-decoration-thickness: initial; text-decoration-style: initial; text-decoration-color: initial; float: none; display: inline !important;&quot;&gt;encrypted-config-file-full-filepath&lt;br&gt;&lt;/span&gt;" style="text;whiteSpace=wrap;html=1;align=left;verticalAlign=middle;" vertex="1" parent="1">
          <mxGeometry x="120" y="555" width="180" height="70" as="geometry" />
        </mxCell>
        <mxCell id="GMTRytyDHXY1ILTxqJ32-33" value="" style="endArrow=open;html=1;endFill=0;entryX=0;entryY=0.5;entryDx=0;entryDy=0;curved=1;exitX=1;exitY=0.5;exitDx=0;exitDy=0;" edge="1" parent="1" source="GMTRytyDHXY1ILTxqJ32-32" target="GMTRytyDHXY1ILTxqJ32-17">
          <mxGeometry width="50" height="50" relative="1" as="geometry">
            <mxPoint x="300" y="595" as="sourcePoint" />
            <mxPoint x="570" y="607" as="targetPoint" />
            <Array as="points">
              <mxPoint x="440" y="540" />
            </Array>
          </mxGeometry>
        </mxCell>
        <mxCell id="GMTRytyDHXY1ILTxqJ32-34" value="" style="group" vertex="1" connectable="0" parent="1">
          <mxGeometry x="440" y="490" width="110" height="30" as="geometry" />
        </mxCell>
        <mxCell id="GMTRytyDHXY1ILTxqJ32-35" value="" style="html=1;dashed=0;whiteSpace=wrap;shape=partialRectangle;right=0;left=0;" vertex="1" parent="GMTRytyDHXY1ILTxqJ32-34">
          <mxGeometry width="110" height="30" as="geometry" />
        </mxCell>
        <mxCell id="GMTRytyDHXY1ILTxqJ32-36" value="&lt;span style=&quot;color: rgb(0, 0, 0); font-family: Helvetica; font-size: 12px; font-style: normal; font-variant-ligatures: normal; font-variant-caps: normal; font-weight: 400; letter-spacing: normal; orphans: 2; text-indent: 0px; text-transform: none; widows: 2; word-spacing: 0px; -webkit-text-stroke-width: 0px; background-color: rgb(255, 255, 255); text-decoration-thickness: initial; text-decoration-style: initial; text-decoration-color: initial; float: none; display: inline !important;&quot;&gt;Env. Vars&lt;/span&gt;" style="text;whiteSpace=wrap;html=1;align=center;verticalAlign=middle;" vertex="1" parent="GMTRytyDHXY1ILTxqJ32-34">
          <mxGeometry x="20" y="5" width="70" height="20" as="geometry" />
        </mxCell>
        <mxCell id="GMTRytyDHXY1ILTxqJ32-38" value="" style="endArrow=open;html=1;endFill=0;entryX=0.5;entryY=0;entryDx=0;entryDy=0;curved=1;exitX=0.5;exitY=1;exitDx=0;exitDy=0;" edge="1" parent="1" source="GMTRytyDHXY1ILTxqJ32-11" target="GMTRytyDHXY1ILTxqJ32-35">
          <mxGeometry width="50" height="50" relative="1" as="geometry">
            <mxPoint x="530" y="210" as="sourcePoint" />
            <mxPoint x="640" y="50" as="targetPoint" />
          </mxGeometry>
        </mxCell>
        <mxCell id="GMTRytyDHXY1ILTxqJ32-39" value="&lt;div style=&quot;padding: 0px 0px 0px 2px; font-size: 9px;&quot;&gt;&lt;div style=&quot;font-family: Consolas; font-size: 9px;&quot;&gt;&lt;p style=&quot;margin: 0px; font-size: 9px;&quot;&gt;SOPS_AGE_KEY_FILE&lt;/p&gt;&lt;/div&gt;&lt;/div&gt;" style="edgeLabel;html=1;align=center;verticalAlign=middle;resizable=0;points=[];labelBackgroundColor=none;fontSize=9;" vertex="1" connectable="0" parent="GMTRytyDHXY1ILTxqJ32-38">
          <mxGeometry x="0.13" y="-13" relative="1" as="geometry">
            <mxPoint x="27" y="-6" as="offset" />
          </mxGeometry>
        </mxCell>
        <mxCell id="GMTRytyDHXY1ILTxqJ32-40" value="" style="endArrow=open;html=1;endFill=0;entryX=0.5;entryY=0;entryDx=0;entryDy=0;curved=1;exitX=0.5;exitY=1;exitDx=0;exitDy=0;" edge="1" parent="1" source="GMTRytyDHXY1ILTxqJ32-35" target="GMTRytyDHXY1ILTxqJ32-17">
          <mxGeometry width="50" height="50" relative="1" as="geometry">
            <mxPoint x="759.9600000000005" y="556.2600000000002" as="sourcePoint" />
            <mxPoint x="755" y="538" as="targetPoint" />
          </mxGeometry>
        </mxCell>
        <mxCell id="GMTRytyDHXY1ILTxqJ32-41" value="&lt;div style=&quot;padding: 0px 0px 0px 2px; font-size: 9px;&quot;&gt;&lt;div style=&quot;font-family: Consolas; font-size: 9px;&quot;&gt;&lt;p style=&quot;margin: 0px; font-size: 9px;&quot;&gt;SOPS_AGE_KEY_FILE&lt;/p&gt;&lt;/div&gt;&lt;/div&gt;" style="edgeLabel;html=1;align=center;verticalAlign=middle;resizable=0;points=[];labelBackgroundColor=none;fontSize=9;" vertex="1" connectable="0" parent="GMTRytyDHXY1ILTxqJ32-40">
          <mxGeometry x="0.13" y="-13" relative="1" as="geometry">
            <mxPoint x="27" y="-6" as="offset" />
          </mxGeometry>
        </mxCell>
        <mxCell id="GMTRytyDHXY1ILTxqJ32-42" value="Setup secure storage of private key" style="whiteSpace=wrap;html=1;fillColor=none;verticalAlign=top;align=left;" vertex="1" parent="1">
          <mxGeometry x="320" y="700" width="430" height="450" as="geometry" />
        </mxCell>
        <mxCell id="GMTRytyDHXY1ILTxqJ32-43" value="" style="endArrow=open;html=1;endFill=0;curved=1;exitX=1;exitY=0.5;exitDx=0;exitDy=0;entryX=0.382;entryY=-0.005;entryDx=0;entryDy=0;entryPerimeter=0;" edge="1" parent="1" source="GMTRytyDHXY1ILTxqJ32-10" target="GMTRytyDHXY1ILTxqJ32-13">
          <mxGeometry width="50" height="50" relative="1" as="geometry">
            <mxPoint x="430" y="980" as="sourcePoint" />
            <mxPoint x="620" y="990" as="targetPoint" />
            <Array as="points">
              <mxPoint x="550" y="770" />
            </Array>
          </mxGeometry>
        </mxCell>
        <mxCell id="GMTRytyDHXY1ILTxqJ32-45" value="directory" style="edgeLabel;html=1;align=center;verticalAlign=middle;resizable=0;points=[];" vertex="1" connectable="0" parent="GMTRytyDHXY1ILTxqJ32-43">
          <mxGeometry x="0.3498" y="-8" relative="1" as="geometry">
            <mxPoint as="offset" />
          </mxGeometry>
        </mxCell>
        <mxCell id="GMTRytyDHXY1ILTxqJ32-44" value="" style="endArrow=open;html=1;endFill=0;curved=1;exitX=1;exitY=0.5;exitDx=0;exitDy=0;entryX=0.5;entryY=1;entryDx=0;entryDy=0;" edge="1" parent="1" source="GMTRytyDHXY1ILTxqJ32-12" target="GMTRytyDHXY1ILTxqJ32-13">
          <mxGeometry width="50" height="50" relative="1" as="geometry">
            <mxPoint x="450" y="790" as="sourcePoint" />
            <mxPoint x="641" y="820" as="targetPoint" />
            <Array as="points">
              <mxPoint x="600" y="1020" />
            </Array>
          </mxGeometry>
        </mxCell>
        <mxCell id="GMTRytyDHXY1ILTxqJ32-46" value="group" style="edgeLabel;html=1;align=center;verticalAlign=middle;resizable=0;points=[];" vertex="1" connectable="0" parent="GMTRytyDHXY1ILTxqJ32-44">
          <mxGeometry x="-0.0663" y="19" relative="1" as="geometry">
            <mxPoint y="-1" as="offset" />
          </mxGeometry>
        </mxCell>
        <mxCell id="GMTRytyDHXY1ILTxqJ32-47" value="" style="endArrow=open;html=1;endFill=0;curved=1;exitX=0.5;exitY=1;exitDx=0;exitDy=0;entryX=0;entryY=0.5;entryDx=0;entryDy=0;" edge="1" parent="1" source="GMTRytyDHXY1ILTxqJ32-10" target="GMTRytyDHXY1ILTxqJ32-14">
          <mxGeometry width="50" height="50" relative="1" as="geometry">
            <mxPoint x="440" y="780" as="sourcePoint" />
            <mxPoint x="691" y="880" as="targetPoint" />
            <Array as="points">
              <mxPoint x="390" y="870" />
            </Array>
          </mxGeometry>
        </mxCell>
        <mxCell id="GMTRytyDHXY1ILTxqJ32-48" value="directory" style="edgeLabel;html=1;align=center;verticalAlign=middle;resizable=0;points=[];" vertex="1" connectable="0" parent="GMTRytyDHXY1ILTxqJ32-47">
          <mxGeometry x="0.3498" y="-8" relative="1" as="geometry">
            <mxPoint as="offset" />
          </mxGeometry>
        </mxCell>
        <mxCell id="GMTRytyDHXY1ILTxqJ32-49" value="" style="endArrow=open;html=1;endFill=0;curved=1;exitX=0.5;exitY=1;exitDx=0;exitDy=0;entryX=0;entryY=0.5;entryDx=0;entryDy=0;" edge="1" parent="1" source="GMTRytyDHXY1ILTxqJ32-12" target="GMTRytyDHXY1ILTxqJ32-15">
          <mxGeometry width="50" height="50" relative="1" as="geometry">
            <mxPoint x="450" y="1010" as="sourcePoint" />
            <mxPoint x="700" y="960" as="targetPoint" />
            <Array as="points">
              <mxPoint x="430" y="1090" />
            </Array>
          </mxGeometry>
        </mxCell>
        <mxCell id="GMTRytyDHXY1ILTxqJ32-50" value="group" style="edgeLabel;html=1;align=center;verticalAlign=middle;resizable=0;points=[];" vertex="1" connectable="0" parent="GMTRytyDHXY1ILTxqJ32-49">
          <mxGeometry x="-0.0663" y="19" relative="1" as="geometry">
            <mxPoint y="-1" as="offset" />
          </mxGeometry>
        </mxCell>
      </root>
    </mxGraphModel>
  </diagram>
  <diagram id="aXvVYiL5qjn1pr6ji903" name="Generate-Keys">
    <mxGraphModel dx="1418" dy="828" grid="1" gridSize="10" guides="1" tooltips="1" connect="0" arrows="1" fold="0" page="1" pageScale="1" pageWidth="827" pageHeight="1169" math="0" shadow="0">
      <root>
        <mxCell id="0" />
        <mxCell id="1" parent="0" />
        <mxCell id="aGkAZ5vbo31I6YQZTo5o-1" value="Remot Host" style="swimlane;horizontal=0;whiteSpace=wrap;html=1;container=0;strokeWidth=3;fontSize=14;" parent="1" vertex="1">
          <mxGeometry x="880" y="1376" width="310" height="510" as="geometry" />
        </mxCell>
        <mxCell id="aGkAZ5vbo31I6YQZTo5o-22" style="edgeStyle=none;curved=1;rounded=0;orthogonalLoop=1;jettySize=auto;html=1;endArrow=open;startSize=14;endSize=14;sourcePerimeterSpacing=8;targetPerimeterSpacing=8;entryX=1;entryY=0.5;entryDx=0;entryDy=0;exitX=-0.055;exitY=0.447;exitDx=0;exitDy=0;exitPerimeter=0;" parent="1" source="aGkAZ5vbo31I6YQZTo5o-23" target="aGkAZ5vbo31I6YQZTo5o-18" edge="1">
          <mxGeometry relative="1" as="geometry">
            <mxPoint x="900" y="1221" as="targetPoint" />
            <Array as="points">
              <mxPoint x="930" y="1210" />
            </Array>
          </mxGeometry>
        </mxCell>
        <mxCell id="aGkAZ5vbo31I6YQZTo5o-23" value="" style="shape=mxgraph.signs.people.man_1;html=1;pointerEvents=1;fillColor=none;strokeColor=default;verticalLabelPosition=bottom;verticalAlign=top;align=center;sketch=0;" parent="1" vertex="1">
          <mxGeometry x="960" y="1172" width="37" height="98" as="geometry" />
        </mxCell>
        <mxCell id="aGkAZ5vbo31I6YQZTo5o-2" value="" style="group" parent="1" vertex="1" connectable="0">
          <mxGeometry x="580" y="1110" width="150" height="160" as="geometry" />
        </mxCell>
        <mxCell id="aGkAZ5vbo31I6YQZTo5o-3" value="&lt;font style=&quot;&quot;&gt;&lt;span style=&quot;font-size: 12px;&quot;&gt;/REMOTE_FILEPATH/&lt;/span&gt;&lt;br&gt;&lt;font style=&quot;font-size: 15px;&quot;&gt;mysql-setup&lt;/font&gt;&lt;/font&gt;" style="rounded=1;whiteSpace=wrap;html=1;fontSize=15;verticalAlign=top;container=0;" parent="aGkAZ5vbo31I6YQZTo5o-2" vertex="1">
          <mxGeometry width="150" height="160" as="geometry" />
        </mxCell>
        <mxCell id="aGkAZ5vbo31I6YQZTo5o-4" value="" style="shape=image;aspect=fixed;image=data:image/png,iVBORw0KGgoAAAANSUhEUgAAAEwAAABMCAYAAADHl1ErAAAACXBIWXMAAA7DAAAOwwHHb6hkAAAAGXRFWHRTb2Z0d2FyZQB3d3cuaW5rc2NhcGUub3Jnm+48GgAABFtJREFUeJztnE9oY0Ucx7+/eS9Nk31/8qfb1tpD2hBCuoXSVdLa2ItIQdiLiHqXFQ8LnmT9gwdBBC/iwZt48ehFT1JI78WjHgrWVlawbG2bIilpTZOXjId9OWleM8mbJp2dDzwozB9+/TDze5M38x5xziELIkoBuCvQ5C8Av3LOPUkhDYwpo1MiomQy+X4+n7+fzWazRNRTu/Pz8+ru7u7vRPQy5/xvGbENSujCiCgzOTn5bbFYfH5mZiYu2Ny1LOvu5ubmGoAfw44tDEIVlkgk3snn8w9LpdK8aUoZvEPHJKLC9PT09/F4vD5gX6xYLGbm5uacUCIbUUwA0UKh8Gwul7OHHcxNgA07gJuGFiaIFiaIFiaIFiaIFiaIFiaIFiaIFiaIFiaIFiaIFiaIFiaIFiaIFiaIFiaIFiaIFiaIFiaIFiYIA9BsNBoju9M8ajDO+c7+/v4vjUZj2LHcCBgAHB0dvVkul3+uVqvtYQc06pgAwDk/JqLS1tbWB7FY7AXGWMQ0TS8SiaDZbN7q5cAKEXEAsSd/Ut8nXC4vL2NEdN5ve9lQWKd3iCgH4DcA73HOvwil0xFE3yUF0cIEUfOIjQBENJZMJj+xLGutWx3Oeater393cnLy9VMtzHGce7Ozs5+trq7eSaVSRlDdcrkcAaCWsImJiR9s257usbqxtLSUXVhYSPVSmYjGAMWmpG3bUxsbG6uSuidAvaQv7YQz+Qd1lRIm80Q4fFdKCYMeYcLIHGIEyEn6rxLR7YDyOoB/AsovAFwGlNcANP+vYGpqyro6vP7ojLAwhRGAKoCSf107Z2dnJxK7D12YAcAF8BDANwH1bgEYCyi3r4jLRZdU4rru5wCCRnffyBhhHRpXvPYi7ZWYTCZTk9V3B530e+2YcyXvkjJRT1i7Le8Je+eNPKWEXVxcbB8eHgYtWQZBWtIfGqenpx9vb28zx3HuRaPRUNdkx8fHUUAxYfzJj8kP/UsKSk3J60ALE0QLE0QLE0QLE0QLE0QLE0SpdVi/RKPRO4lE4lPTNP/znQ0i8jzP81qt1uNKpfLgqRZGRPF0Ov3V4uLiK8vLy88YRve93J2dndNKpfKlUsJs237ddd13GWOtXurPz8/fXllZKdi2feW3bsbHx8cBuEoJi0Qi2fX19RcdJ/xvjRARA8CUSvptic93GGMMgKGUMABtWZu5/jN9tYQRUUuiMCWnZE/Jvh+IyABgyEj6a0TU7aln101YnzMAQf90FUDXPBWPxy1ZI4wxRgAiYQqrAvgDwBv+de3U6/U9iVMSpmlSaMI454+J6CUAQQfUum7C+iQDypjfvhumaZrPAcgF1BkIzjkLdUpyzh8BeBRmnyI4jvM25/wtGX13Du8olfQhcVnho9ayAsE3jIEgIhiGodYIa7fb0tZhPmoJ8zzvp729vT9l9O2PMCO0d41GhXQ6/ZplWR+lUqnJzhGlMKjVamMHBwcPlBPWgYgS8Lf3Q6T2L3fhFhK29ioTAAAAAElFTkSuQmCC;imageBackground=none;container=0;" parent="aGkAZ5vbo31I6YQZTo5o-2" vertex="1">
          <mxGeometry x="30" y="50" width="60" height="60" as="geometry" />
        </mxCell>
        <mxCell id="aGkAZ5vbo31I6YQZTo5o-5" value="" style="group" parent="aGkAZ5vbo31I6YQZTo5o-2" vertex="1" connectable="0">
          <mxGeometry x="100" y="80" width="40" height="70" as="geometry" />
        </mxCell>
        <mxCell id="aGkAZ5vbo31I6YQZTo5o-6" value="" style="whiteSpace=wrap;html=1;verticalAlign=bottom;" parent="aGkAZ5vbo31I6YQZTo5o-5" vertex="1">
          <mxGeometry width="40" height="70" as="geometry" />
        </mxCell>
        <mxCell id="aGkAZ5vbo31I6YQZTo5o-7" value="" style="sketch=0;pointerEvents=1;shadow=0;dashed=0;html=1;strokeColor=none;fillColor=#434445;aspect=fixed;labelPosition=center;verticalLabelPosition=bottom;verticalAlign=top;align=center;outlineConnect=0;shape=mxgraph.vvd.guest_agent_customization;strokeWidth=0;" parent="aGkAZ5vbo31I6YQZTo5o-5" vertex="1">
          <mxGeometry x="3" y="3" width="33.7" height="31" as="geometry" />
        </mxCell>
        <mxCell id="aGkAZ5vbo31I6YQZTo5o-8" value="&lt;span style=&quot;color: rgb(0, 0, 0); font-family: Helvetica; font-style: normal; font-variant-ligatures: normal; font-variant-caps: normal; font-weight: 400; letter-spacing: normal; orphans: 2; text-indent: 0px; text-transform: none; widows: 2; word-spacing: 0px; -webkit-text-stroke-width: 0px; background-color: rgb(255, 255, 255); text-decoration-thickness: initial; text-decoration-style: initial; text-decoration-color: initial; float: none; display: inline !important;&quot;&gt;.env&lt;br&gt;&lt;font style=&quot;font-size: 10px;&quot;&gt;«file»&lt;/font&gt;&lt;br&gt;&lt;/span&gt;" style="text;whiteSpace=wrap;html=1;align=center;verticalAlign=top;spacing=0;" parent="aGkAZ5vbo31I6YQZTo5o-5" vertex="1">
          <mxGeometry x="4.850000000000023" y="34" width="30" height="36" as="geometry" />
        </mxCell>
        <mxCell id="aGkAZ5vbo31I6YQZTo5o-9" value="Docker Container" style="swimlane;whiteSpace=wrap;html=1;" parent="1" vertex="1">
          <mxGeometry x="425" y="1430" width="200" height="270" as="geometry" />
        </mxCell>
        <mxCell id="aGkAZ5vbo31I6YQZTo5o-10" value="" style="group" parent="aGkAZ5vbo31I6YQZTo5o-9" vertex="1" connectable="0">
          <mxGeometry x="70" y="170" width="60" height="80" as="geometry" />
        </mxCell>
        <mxCell id="aGkAZ5vbo31I6YQZTo5o-11" value="Volumes" style="whiteSpace=wrap;html=1;verticalAlign=bottom;" parent="aGkAZ5vbo31I6YQZTo5o-10" vertex="1">
          <mxGeometry width="60" height="80" as="geometry" />
        </mxCell>
        <mxCell id="aGkAZ5vbo31I6YQZTo5o-12" value="" style="shape=cylinder3;whiteSpace=wrap;html=1;boundedLbl=1;backgroundOutline=1;size=15;dashed=1;dashPattern=8 8;" parent="aGkAZ5vbo31I6YQZTo5o-10" vertex="1">
          <mxGeometry x="7.5" y="20" width="45" height="40" as="geometry" />
        </mxCell>
        <mxCell id="aGkAZ5vbo31I6YQZTo5o-13" value="AGE" style="whiteSpace=wrap;html=1;" parent="aGkAZ5vbo31I6YQZTo5o-9" vertex="1">
          <mxGeometry x="60" y="70" width="80" height="65" as="geometry" />
        </mxCell>
        <mxCell id="aGkAZ5vbo31I6YQZTo5o-14" value="" style="endArrow=open;html=1;rounded=0;startSize=14;endSize=14;sourcePerimeterSpacing=8;targetPerimeterSpacing=8;curved=1;exitX=0.5;exitY=1;exitDx=0;exitDy=0;endFill=0;entryX=0.5;entryY=0;entryDx=0;entryDy=0;" parent="aGkAZ5vbo31I6YQZTo5o-9" source="aGkAZ5vbo31I6YQZTo5o-13" target="aGkAZ5vbo31I6YQZTo5o-11" edge="1">
          <mxGeometry width="50" height="50" relative="1" as="geometry">
            <mxPoint x="110" y="260" as="sourcePoint" />
            <mxPoint x="100" y="160" as="targetPoint" />
          </mxGeometry>
        </mxCell>
        <mxCell id="aGkAZ5vbo31I6YQZTo5o-16" value="" style="endArrow=open;html=1;rounded=0;startSize=14;endSize=14;sourcePerimeterSpacing=8;targetPerimeterSpacing=8;curved=1;exitX=0.5;exitY=1;exitDx=0;exitDy=0;endFill=0;" parent="1" source="aGkAZ5vbo31I6YQZTo5o-11" target="qSU5AdETewmPxIVoKtzy-23" edge="1">
          <mxGeometry width="50" height="50" relative="1" as="geometry">
            <mxPoint x="235" y="1655" as="sourcePoint" />
            <mxPoint x="531.25" y="1745" as="targetPoint" />
          </mxGeometry>
        </mxCell>
        <mxCell id="aGkAZ5vbo31I6YQZTo5o-17" style="edgeStyle=none;curved=1;rounded=0;orthogonalLoop=1;jettySize=auto;html=1;entryX=1;entryY=0.25;entryDx=0;entryDy=0;endArrow=open;startSize=14;endSize=14;sourcePerimeterSpacing=8;targetPerimeterSpacing=8;exitX=0;exitY=0.5;exitDx=0;exitDy=0;" parent="1" source="aGkAZ5vbo31I6YQZTo5o-18" target="aGkAZ5vbo31I6YQZTo5o-8" edge="1">
          <mxGeometry relative="1" as="geometry">
            <Array as="points">
              <mxPoint x="780" y="1233" />
            </Array>
          </mxGeometry>
        </mxCell>
        <mxCell id="aGkAZ5vbo31I6YQZTo5o-18" value="Configure Manually" style="ellipse;whiteSpace=wrap;html=1;aspect=fixed;" parent="1" vertex="1">
          <mxGeometry x="815" y="1180" width="80" height="80" as="geometry" />
        </mxCell>
        <mxCell id="aGkAZ5vbo31I6YQZTo5o-19" style="edgeStyle=none;curved=1;rounded=0;orthogonalLoop=1;jettySize=auto;html=1;endArrow=open;startSize=14;endSize=14;sourcePerimeterSpacing=8;targetPerimeterSpacing=8;exitX=1;exitY=0.5;exitDx=0;exitDy=0;" parent="1" source="aGkAZ5vbo31I6YQZTo5o-20" edge="1">
          <mxGeometry relative="1" as="geometry">
            <mxPoint x="190" y="1200" as="targetPoint" />
            <Array as="points">
              <mxPoint x="400" y="1550" />
            </Array>
          </mxGeometry>
        </mxCell>
        <mxCell id="aGkAZ5vbo31I6YQZTo5o-20" value="start&lt;br style=&quot;border-color: var(--border-color); color: rgb(51, 51, 51);&quot;&gt;&lt;span style=&quot;border-color: var(--border-color); color: rgb(51, 51, 51);&quot;&gt;docker&lt;/span&gt;&lt;br style=&quot;border-color: var(--border-color); color: rgb(51, 51, 51);&quot;&gt;&lt;span style=&quot;border-color: var(--border-color); color: rgb(51, 51, 51);&quot;&gt;containter&lt;/span&gt;" style="ellipse;whiteSpace=wrap;html=1;aspect=fixed;" parent="1" vertex="1">
          <mxGeometry x="330" y="1140" width="80" height="80" as="geometry" />
        </mxCell>
        <mxCell id="aGkAZ5vbo31I6YQZTo5o-21" style="edgeStyle=none;curved=1;rounded=0;orthogonalLoop=1;jettySize=auto;html=1;entryX=0.5;entryY=0;entryDx=0;entryDy=0;endArrow=open;startSize=14;endSize=14;sourcePerimeterSpacing=8;targetPerimeterSpacing=8;" parent="1" source="aGkAZ5vbo31I6YQZTo5o-3" target="aGkAZ5vbo31I6YQZTo5o-20" edge="1">
          <mxGeometry relative="1" as="geometry">
            <Array as="points">
              <mxPoint x="540" y="1320" />
            </Array>
          </mxGeometry>
        </mxCell>
        <mxCell id="qSU5AdETewmPxIVoKtzy-34" value="" style="group" parent="1" vertex="1" connectable="0">
          <mxGeometry x="514" y="1770" width="98" height="116" as="geometry" />
        </mxCell>
        <mxCell id="qSU5AdETewmPxIVoKtzy-32" value="" style="group" parent="qSU5AdETewmPxIVoKtzy-34" vertex="1" connectable="0">
          <mxGeometry x="28" y="66" width="70" height="50" as="geometry" />
        </mxCell>
        <mxCell id="qSU5AdETewmPxIVoKtzy-30" value="" style="sketch=0;pointerEvents=1;shadow=0;dashed=0;html=1;strokeColor=none;fillColor=#808080;labelPosition=center;verticalLabelPosition=bottom;verticalAlign=top;align=center;outlineConnect=0;shape=mxgraph.veeam2.folder;" parent="qSU5AdETewmPxIVoKtzy-32" vertex="1">
          <mxGeometry width="70" height="50" as="geometry" />
        </mxCell>
        <mxCell id="qSU5AdETewmPxIVoKtzy-48" value="" style="group" parent="qSU5AdETewmPxIVoKtzy-32" vertex="1" connectable="0">
          <mxGeometry x="32" y="10" width="29" height="38" as="geometry" />
        </mxCell>
        <mxCell id="qSU5AdETewmPxIVoKtzy-44" value="" style="whiteSpace=wrap;html=1;shape=mxgraph.basic.document" parent="qSU5AdETewmPxIVoKtzy-48" vertex="1">
          <mxGeometry width="29" height="38" as="geometry" />
        </mxCell>
        <mxCell id="qSU5AdETewmPxIVoKtzy-45" value="key-pairs" style="text;whiteSpace=wrap;html=1;verticalAlign=middle;align=center;spacing=0;fontSize=9;fillColor=none;" parent="qSU5AdETewmPxIVoKtzy-48" vertex="1">
          <mxGeometry x="1.75" y="16" width="24" height="20" as="geometry" />
        </mxCell>
        <mxCell id="qSU5AdETewmPxIVoKtzy-46" value="" style="sketch=0;pointerEvents=1;shadow=0;dashed=0;html=1;strokeColor=none;fillColor=#006633;labelPosition=center;verticalLabelPosition=bottom;verticalAlign=top;outlineConnect=0;align=center;shape=mxgraph.office.security.key_permissions;fontSize=10;rotation=90;" parent="qSU5AdETewmPxIVoKtzy-48" vertex="1">
          <mxGeometry x="12.75" y="3" width="10" height="20" as="geometry" />
        </mxCell>
        <mxCell id="qSU5AdETewmPxIVoKtzy-47" value="" style="sketch=0;pointerEvents=1;shadow=0;dashed=0;html=1;strokeColor=none;fillColor=#FF3333;labelPosition=center;verticalLabelPosition=bottom;verticalAlign=top;outlineConnect=0;align=center;shape=mxgraph.office.security.key_permissions;fontSize=10;rotation=90;" parent="qSU5AdETewmPxIVoKtzy-48" vertex="1">
          <mxGeometry x="6.75" y="-3" width="10" height="20" as="geometry" />
        </mxCell>
        <mxCell id="qSU5AdETewmPxIVoKtzy-21" value="" style="sketch=0;pointerEvents=1;shadow=0;dashed=0;html=1;strokeColor=none;fillColor=#808080;labelPosition=center;verticalLabelPosition=bottom;verticalAlign=top;align=center;outlineConnect=0;shape=mxgraph.veeam2.folder;" parent="qSU5AdETewmPxIVoKtzy-34" vertex="1">
          <mxGeometry x="38.46153846153845" y="16" width="21.538461538461537" height="15.999999999999996" as="geometry" />
        </mxCell>
        <mxCell id="qSU5AdETewmPxIVoKtzy-22" value="" style="sketch=0;pointerEvents=1;shadow=0;dashed=0;html=1;strokeColor=none;fillColor=#808080;labelPosition=center;verticalLabelPosition=bottom;verticalAlign=top;align=center;outlineConnect=0;shape=mxgraph.veeam2.folder;" parent="qSU5AdETewmPxIVoKtzy-34" vertex="1">
          <mxGeometry x="38.46153846153845" y="40" width="21.538461538461537" height="15.999999999999996" as="geometry" />
        </mxCell>
        <mxCell id="qSU5AdETewmPxIVoKtzy-23" value="" style="sketch=0;pointerEvents=1;shadow=0;dashed=0;html=1;strokeColor=none;fillColor=#808080;labelPosition=center;verticalLabelPosition=bottom;verticalAlign=top;align=center;outlineConnect=0;shape=mxgraph.veeam2.folder;" parent="qSU5AdETewmPxIVoKtzy-34" vertex="1">
          <mxGeometry width="21.538461538461537" height="15.999999999999996" as="geometry" />
        </mxCell>
        <mxCell id="qSU5AdETewmPxIVoKtzy-14" value="" style="endArrow=none;html=1;rounded=0;edgeStyle=elbowEdgeStyle;elbow=vertical;" parent="qSU5AdETewmPxIVoKtzy-34" source="qSU5AdETewmPxIVoKtzy-21" target="qSU5AdETewmPxIVoKtzy-23" edge="1">
          <mxGeometry width="50" height="50" relative="1" as="geometry">
            <mxPoint x="20" y="26" as="sourcePoint" />
            <mxPoint x="10" y="24" as="targetPoint" />
            <Array as="points">
              <mxPoint x="10" y="26" />
            </Array>
          </mxGeometry>
        </mxCell>
        <mxCell id="qSU5AdETewmPxIVoKtzy-24" value="" style="endArrow=none;html=1;rounded=0;" parent="qSU5AdETewmPxIVoKtzy-34" source="qSU5AdETewmPxIVoKtzy-22" edge="1">
          <mxGeometry width="50" height="50" relative="1" as="geometry">
            <mxPoint x="38.46153846153845" y="32" as="sourcePoint" />
            <mxPoint x="10" y="26" as="targetPoint" />
            <Array as="points">
              <mxPoint x="10" y="48" />
            </Array>
          </mxGeometry>
        </mxCell>
        <mxCell id="qSU5AdETewmPxIVoKtzy-33" value="" style="endArrow=none;html=1;rounded=0;jumpSize=0;" parent="qSU5AdETewmPxIVoKtzy-34" edge="1">
          <mxGeometry width="50" height="50" relative="1" as="geometry">
            <mxPoint x="28" y="96" as="sourcePoint" />
            <mxPoint x="10" y="46" as="targetPoint" />
            <Array as="points">
              <mxPoint x="10" y="96" />
            </Array>
          </mxGeometry>
        </mxCell>
        <mxCell id="qSU5AdETewmPxIVoKtzy-49" value="" style="group" parent="1" vertex="1" connectable="0">
          <mxGeometry x="421" y="1836" width="70" height="50" as="geometry" />
        </mxCell>
        <mxCell id="qSU5AdETewmPxIVoKtzy-36" value="" style="sketch=0;pointerEvents=1;shadow=0;dashed=0;html=1;strokeColor=none;fillColor=#808080;labelPosition=center;verticalLabelPosition=bottom;verticalAlign=top;align=center;outlineConnect=0;shape=mxgraph.veeam2.folder;" parent="qSU5AdETewmPxIVoKtzy-49" vertex="1">
          <mxGeometry width="70" height="50" as="geometry" />
        </mxCell>
        <mxCell id="qSU5AdETewmPxIVoKtzy-42" value="" style="group" parent="qSU5AdETewmPxIVoKtzy-49" vertex="1" connectable="0">
          <mxGeometry x="30" y="10" width="35.5" height="38" as="geometry" />
        </mxCell>
        <mxCell id="qSU5AdETewmPxIVoKtzy-38" value="" style="whiteSpace=wrap;html=1;shape=mxgraph.basic.document" parent="qSU5AdETewmPxIVoKtzy-42" vertex="1">
          <mxGeometry x="3.25" width="29" height="38" as="geometry" />
        </mxCell>
        <mxCell id="qSU5AdETewmPxIVoKtzy-40" value="public-key" style="text;whiteSpace=wrap;html=1;verticalAlign=middle;align=center;spacing=0;fontSize=9;fillColor=none;" parent="qSU5AdETewmPxIVoKtzy-42" vertex="1">
          <mxGeometry y="15" width="35.5" height="20" as="geometry" />
        </mxCell>
        <mxCell id="qSU5AdETewmPxIVoKtzy-41" value="" style="sketch=0;pointerEvents=1;shadow=0;dashed=0;html=1;strokeColor=none;fillColor=#006633;labelPosition=center;verticalLabelPosition=bottom;verticalAlign=top;outlineConnect=0;align=center;shape=mxgraph.office.security.key_permissions;fontSize=10;rotation=90;" parent="qSU5AdETewmPxIVoKtzy-42" vertex="1">
          <mxGeometry x="11.25" y="-1" width="10" height="20" as="geometry" />
        </mxCell>
        <mxCell id="qSU5AdETewmPxIVoKtzy-50" value="" style="endArrow=none;html=1;rounded=0;jumpSize=0;entryX=1.099;entryY=0.267;entryDx=0;entryDy=0;entryPerimeter=0;" parent="1" target="qSU5AdETewmPxIVoKtzy-40" edge="1">
          <mxGeometry width="50" height="50" relative="1" as="geometry">
            <mxPoint x="524" y="1866" as="sourcePoint" />
            <mxPoint x="460" y="1866" as="targetPoint" />
          </mxGeometry>
        </mxCell>
        <mxCell id="qSU5AdETewmPxIVoKtzy-51" value="" style="shape=internalStorage;whiteSpace=wrap;html=1;backgroundOutline=1;" parent="1" vertex="1">
          <mxGeometry x="320" y="2110" width="190" height="200" as="geometry" />
        </mxCell>
        <mxCell id="qSU5AdETewmPxIVoKtzy-52" value="Compose Project «directory»" style="text;html=1;strokeColor=none;fillColor=none;align=center;verticalAlign=middle;whiteSpace=wrap;rounded=0;fontSize=14;fontStyle=3" parent="1" vertex="1">
          <mxGeometry x="360" y="2280" width="120" height="30" as="geometry" />
        </mxCell>
        <mxCell id="qSU5AdETewmPxIVoKtzy-64" value=".env" style="whiteSpace=wrap;html=1;shape=mxgraph.basic.document" parent="1" vertex="1">
          <mxGeometry x="460" y="2185" width="40" height="50" as="geometry" />
        </mxCell>
      </root>
    </mxGraphModel>
  </diagram>
  <diagram id="LZKcX6WQHk62B-IT3wh8" name="Approach-old-v1">
    <mxGraphModel dx="2618" dy="428" grid="1" gridSize="10" guides="1" tooltips="1" connect="1" arrows="1" fold="1" page="0" pageScale="1" pageWidth="827" pageHeight="1169" math="0" shadow="0">
      <root>
        <mxCell id="0" />
        <mxCell id="1" parent="0" />
        <mxCell id="dFNtb1b9l759t3CY5BOG-7" value="GitHub" style="text;strokeColor=none;fillColor=none;html=1;verticalAlign=middle;align=center;spacing=0;fontStyle=1;fontSize=14;" parent="1" vertex="1">
          <mxGeometry x="-679" y="735" width="100" height="30" as="geometry" />
        </mxCell>
        <mxCell id="dFNtb1b9l759t3CY5BOG-11" value="" style="endArrow=none;dashed=1;html=1;rounded=0;fontFamily=Shadows Into Light;fontSize=14;strokeColor=#666666;strokeWidth=2;endFill=0;fontColor=#000000;" parent="1" source="dFNtb1b9l759t3CY5BOG-45" target="dFNtb1b9l759t3CY5BOG-70" edge="1">
          <mxGeometry width="50" height="50" relative="1" as="geometry">
            <mxPoint x="-629" y="900" as="sourcePoint" />
            <mxPoint x="-629" y="1020" as="targetPoint" />
          </mxGeometry>
        </mxCell>
        <mxCell id="dFNtb1b9l759t3CY5BOG-16" value="" style="endArrow=none;dashed=1;html=1;rounded=0;fontFamily=Shadows Into Light;fontSize=14;strokeColor=#666666;strokeWidth=2;endFill=0;exitX=0.5;exitY=1;exitDx=0;exitDy=0;fontColor=#000000;" parent="1" target="dFNtb1b9l759t3CY5BOG-15" edge="1">
          <mxGeometry width="50" height="50" relative="1" as="geometry">
            <mxPoint x="-629" y="766.55" as="sourcePoint" />
            <mxPoint x="-629" y="1020" as="targetPoint" />
          </mxGeometry>
        </mxCell>
        <mxCell id="dFNtb1b9l759t3CY5BOG-15" value="" style="html=1;points=[];perimeter=orthogonalPerimeter;outlineConnect=0;targetShapes=umlLifeline;portConstraint=eastwest;newEdgeStyle={&quot;edgeStyle&quot;:&quot;elbowEdgeStyle&quot;,&quot;elbow&quot;:&quot;vertical&quot;,&quot;curved&quot;:0,&quot;rounded&quot;:0};" parent="1" vertex="1">
          <mxGeometry x="-634" y="810" width="10" height="60" as="geometry" />
        </mxCell>
        <mxCell id="dFNtb1b9l759t3CY5BOG-17" value="" style="endArrow=none;dashed=1;html=1;rounded=0;fontFamily=Shadows Into Light;fontSize=14;strokeColor=#666666;strokeWidth=2;endFill=0;exitX=0.5;exitY=1;exitDx=0;exitDy=0;fontColor=#000000;" parent="1" source="dFNtb1b9l759t3CY5BOG-18" target="dFNtb1b9l759t3CY5BOG-19" edge="1">
          <mxGeometry width="50" height="50" relative="1" as="geometry">
            <mxPoint x="-261" y="624.55" as="sourcePoint" />
            <mxPoint x="-261" y="874.55" as="targetPoint" />
          </mxGeometry>
        </mxCell>
        <mxCell id="dFNtb1b9l759t3CY5BOG-18" value="Remote Host" style="text;strokeColor=none;fillColor=none;html=1;verticalAlign=middle;align=center;spacing=0;fontStyle=1;fontSize=14;" parent="1" vertex="1">
          <mxGeometry x="-311" y="594.55" width="100" height="30" as="geometry" />
        </mxCell>
        <mxCell id="dFNtb1b9l759t3CY5BOG-19" value="" style="html=1;points=[];perimeter=orthogonalPerimeter;outlineConnect=0;targetShapes=umlLifeline;portConstraint=eastwest;newEdgeStyle={&quot;edgeStyle&quot;:&quot;elbowEdgeStyle&quot;,&quot;elbow&quot;:&quot;vertical&quot;,&quot;curved&quot;:0,&quot;rounded&quot;:0};" parent="1" vertex="1">
          <mxGeometry x="-266" y="650" width="10" height="160" as="geometry" />
        </mxCell>
        <mxCell id="dFNtb1b9l759t3CY5BOG-21" value="generateKeys()" style="html=1;verticalAlign=bottom;labelBackgroundColor=none;endArrow=open;endFill=0;rounded=0;" parent="1" edge="1">
          <mxGeometry width="160" relative="1" as="geometry">
            <mxPoint x="-925" y="667" as="sourcePoint" />
            <mxPoint x="-265" y="667" as="targetPoint" />
          </mxGeometry>
        </mxCell>
        <mxCell id="dFNtb1b9l759t3CY5BOG-34" value="commit(public-key)" style="html=1;verticalAlign=bottom;labelBackgroundColor=none;endArrow=open;endFill=0;rounded=0;" parent="1" target="dFNtb1b9l759t3CY5BOG-15" edge="1">
          <mxGeometry x="0.4026" width="160" relative="1" as="geometry">
            <mxPoint x="-925" y="817" as="sourcePoint" />
            <mxPoint x="-650" y="817" as="targetPoint" />
            <mxPoint as="offset" />
          </mxGeometry>
        </mxCell>
        <mxCell id="dFNtb1b9l759t3CY5BOG-35" value="" style="html=1;points=[];perimeter=orthogonalPerimeter;outlineConnect=0;targetShapes=umlLifeline;portConstraint=eastwest;newEdgeStyle={&quot;edgeStyle&quot;:&quot;elbowEdgeStyle&quot;,&quot;elbow&quot;:&quot;vertical&quot;,&quot;curved&quot;:0,&quot;rounded&quot;:0};" parent="1" vertex="1">
          <mxGeometry x="-261" y="750" width="10" height="50" as="geometry" />
        </mxCell>
        <mxCell id="dFNtb1b9l759t3CY5BOG-36" value="key-store" style="text;whiteSpace=wrap;html=1;verticalAlign=middle;align=center;spacing=0;fontSize=10;fillColor=#CCCCCC;spacingTop=1;spacingLeft=0;spacingBottom=2;spacingRight=0;" parent="1" vertex="1">
          <mxGeometry x="-250" y="750" width="41" height="10" as="geometry" />
        </mxCell>
        <mxCell id="dFNtb1b9l759t3CY5BOG-37" value="" style="html=1;verticalAlign=bottom;labelBackgroundColor=none;endArrow=open;endFill=0;dashed=1;rounded=0;movable=1;resizable=1;rotatable=1;deletable=1;editable=1;locked=0;connectable=1;entryX=1;entryY=0.25;entryDx=0;entryDy=0;" parent="1" source="dFNtb1b9l759t3CY5BOG-19" target="dFNtb1b9l759t3CY5BOG-36" edge="1">
          <mxGeometry width="160" relative="1" as="geometry">
            <mxPoint x="-54.479999999999905" y="700" as="sourcePoint" />
            <mxPoint x="-221" y="740" as="targetPoint" />
            <Array as="points">
              <mxPoint x="-181" y="690" />
              <mxPoint x="-181" y="753" />
            </Array>
          </mxGeometry>
        </mxCell>
        <mxCell id="dFNtb1b9l759t3CY5BOG-38" value="" style="sketch=0;pointerEvents=1;shadow=0;dashed=0;html=1;strokeColor=none;fillColor=#006633;labelPosition=center;verticalLabelPosition=bottom;verticalAlign=top;outlineConnect=0;align=center;shape=mxgraph.office.security.key_permissions;fontSize=10;rotation=90;" parent="1" vertex="1">
          <mxGeometry x="-705" y="787" width="10" height="20" as="geometry" />
        </mxCell>
        <mxCell id="dFNtb1b9l759t3CY5BOG-29" value="" style="sketch=0;pointerEvents=1;shadow=0;dashed=0;html=1;strokeColor=none;fillColor=#FF3333;labelPosition=center;verticalLabelPosition=bottom;verticalAlign=top;outlineConnect=0;align=center;shape=mxgraph.office.security.key_permissions;fontSize=10;rotation=90;" parent="1" vertex="1">
          <mxGeometry x="-221" y="673" width="10" height="20" as="geometry" />
        </mxCell>
        <mxCell id="dFNtb1b9l759t3CY5BOG-30" value="private-key" style="text;whiteSpace=wrap;html=1;verticalAlign=middle;align=center;spacing=0;fontSize=10;fillColor=none;" parent="1" vertex="1">
          <mxGeometry x="-231" y="690" width="40" height="20" as="geometry" />
        </mxCell>
        <mxCell id="dFNtb1b9l759t3CY5BOG-41" value="AGE-encryption-tool" style="text;whiteSpace=wrap;html=1;verticalAlign=middle;align=center;spacing=0;fontSize=10;fillColor=#CCCCCC;spacingTop=1;spacingLeft=0;spacingBottom=2;spacingRight=0;" parent="1" vertex="1">
          <mxGeometry x="-255" y="650" width="95" height="10" as="geometry" />
        </mxCell>
        <mxCell id="dFNtb1b9l759t3CY5BOG-44" value="clone()" style="html=1;verticalAlign=bottom;labelBackgroundColor=none;endArrow=open;endFill=0;rounded=0;" parent="1" target="dFNtb1b9l759t3CY5BOG-45" edge="1">
          <mxGeometry x="0.4026" width="160" relative="1" as="geometry">
            <mxPoint x="-925" y="901" as="sourcePoint" />
            <mxPoint x="-680" y="900" as="targetPoint" />
            <mxPoint as="offset" />
          </mxGeometry>
        </mxCell>
        <mxCell id="dFNtb1b9l759t3CY5BOG-45" value="" style="html=1;points=[];perimeter=orthogonalPerimeter;outlineConnect=0;targetShapes=umlLifeline;portConstraint=eastwest;newEdgeStyle={&quot;edgeStyle&quot;:&quot;elbowEdgeStyle&quot;,&quot;elbow&quot;:&quot;vertical&quot;,&quot;curved&quot;:0,&quot;rounded&quot;:0};" parent="1" vertex="1">
          <mxGeometry x="-634" y="890" width="10" height="60" as="geometry" />
        </mxCell>
        <mxCell id="dFNtb1b9l759t3CY5BOG-46" value="" style="html=1;verticalAlign=bottom;labelBackgroundColor=none;endArrow=open;endFill=0;dashed=1;rounded=0;" parent="1" source="dFNtb1b9l759t3CY5BOG-45" edge="1">
          <mxGeometry width="160" relative="1" as="geometry">
            <mxPoint x="-480" y="940" as="sourcePoint" />
            <mxPoint x="-925" y="941" as="targetPoint" />
          </mxGeometry>
        </mxCell>
        <mxCell id="dFNtb1b9l759t3CY5BOG-49" value="" style="endArrow=none;dashed=1;html=1;rounded=0;fontFamily=Shadows Into Light;fontSize=14;strokeColor=#666666;strokeWidth=2;endFill=0;exitX=0.5;exitY=1;exitDx=0;exitDy=0;fontColor=#000000;" parent="1" source="dFNtb1b9l759t3CY5BOG-50" target="dFNtb1b9l759t3CY5BOG-51" edge="1">
          <mxGeometry width="50" height="50" relative="1" as="geometry">
            <mxPoint x="-930" y="624.55" as="sourcePoint" />
            <mxPoint x="-930" y="809.55" as="targetPoint" />
          </mxGeometry>
        </mxCell>
        <mxCell id="dFNtb1b9l759t3CY5BOG-50" value="Admin" style="text;strokeColor=none;fillColor=none;html=1;verticalAlign=middle;align=center;spacing=0;fontStyle=1;fontSize=14;" parent="1" vertex="1">
          <mxGeometry x="-980" y="594.55" width="100" height="30" as="geometry" />
        </mxCell>
        <mxCell id="dFNtb1b9l759t3CY5BOG-51" value="" style="html=1;points=[];perimeter=orthogonalPerimeter;outlineConnect=0;targetShapes=umlLifeline;portConstraint=eastwest;newEdgeStyle={&quot;edgeStyle&quot;:&quot;elbowEdgeStyle&quot;,&quot;elbow&quot;:&quot;vertical&quot;,&quot;curved&quot;:0,&quot;rounded&quot;:0};" parent="1" vertex="1">
          <mxGeometry x="-935" y="660" width="10" height="180" as="geometry" />
        </mxCell>
        <mxCell id="dFNtb1b9l759t3CY5BOG-33" value="" style="html=1;verticalAlign=bottom;labelBackgroundColor=none;endArrow=open;endFill=0;dashed=1;rounded=0;" parent="1" source="dFNtb1b9l759t3CY5BOG-19" edge="1">
          <mxGeometry width="160" relative="1" as="geometry">
            <mxPoint x="-685" y="712" as="sourcePoint" />
            <mxPoint x="-925" y="712" as="targetPoint" />
          </mxGeometry>
        </mxCell>
        <mxCell id="dFNtb1b9l759t3CY5BOG-26" value="public-key" style="text;whiteSpace=wrap;html=1;verticalAlign=middle;align=center;spacing=0;fontSize=10;" parent="1" vertex="1">
          <mxGeometry x="-830" y="693" width="60" height="20" as="geometry" />
        </mxCell>
        <mxCell id="dFNtb1b9l759t3CY5BOG-23" value="" style="sketch=0;pointerEvents=1;shadow=0;dashed=0;html=1;strokeColor=none;fillColor=#006633;labelPosition=center;verticalLabelPosition=bottom;verticalAlign=top;outlineConnect=0;align=center;shape=mxgraph.office.security.key_permissions;fontSize=10;rotation=90;" parent="1" vertex="1">
          <mxGeometry x="-770" y="693" width="10" height="20" as="geometry" />
        </mxCell>
        <mxCell id="dFNtb1b9l759t3CY5BOG-55" value="" style="html=1;points=[];perimeter=orthogonalPerimeter;outlineConnect=0;targetShapes=umlLifeline;portConstraint=eastwest;newEdgeStyle={&quot;edgeStyle&quot;:&quot;elbowEdgeStyle&quot;,&quot;elbow&quot;:&quot;vertical&quot;,&quot;curved&quot;:0,&quot;rounded&quot;:0};" parent="1" vertex="1">
          <mxGeometry x="-935" y="890" width="10" height="260" as="geometry" />
        </mxCell>
        <mxCell id="dFNtb1b9l759t3CY5BOG-56" value="" style="group" parent="1" vertex="1" connectable="0">
          <mxGeometry x="-770" y="920" width="75" height="20" as="geometry" />
        </mxCell>
        <mxCell id="dFNtb1b9l759t3CY5BOG-47" value="public-key" style="text;whiteSpace=wrap;html=1;verticalAlign=middle;align=center;spacing=0;fontSize=10;" parent="dFNtb1b9l759t3CY5BOG-56" vertex="1">
          <mxGeometry width="60" height="20" as="geometry" />
        </mxCell>
        <mxCell id="dFNtb1b9l759t3CY5BOG-48" value="" style="sketch=0;pointerEvents=1;shadow=0;dashed=0;html=1;strokeColor=none;fillColor=#006633;labelPosition=center;verticalLabelPosition=bottom;verticalAlign=top;outlineConnect=0;align=center;shape=mxgraph.office.security.key_permissions;fontSize=10;rotation=90;" parent="dFNtb1b9l759t3CY5BOG-56" vertex="1">
          <mxGeometry x="60" width="10" height="20" as="geometry" />
        </mxCell>
        <mxCell id="dFNtb1b9l759t3CY5BOG-61" value="" style="html=1;points=[];perimeter=orthogonalPerimeter;outlineConnect=0;targetShapes=umlLifeline;portConstraint=eastwest;newEdgeStyle={&quot;edgeStyle&quot;:&quot;elbowEdgeStyle&quot;,&quot;elbow&quot;:&quot;vertical&quot;,&quot;curved&quot;:0,&quot;rounded&quot;:0};" parent="1" vertex="1">
          <mxGeometry x="-930" y="1045" width="10" height="50" as="geometry" />
        </mxCell>
        <mxCell id="dFNtb1b9l759t3CY5BOG-62" value="SOPS" style="text;whiteSpace=wrap;html=1;verticalAlign=middle;align=center;spacing=0;fontSize=10;fillColor=#CCCCCC;spacingTop=1;spacingLeft=0;spacingBottom=2;spacingRight=0;" parent="1" vertex="1">
          <mxGeometry x="-920" y="1045" width="30" height="10" as="geometry" />
        </mxCell>
        <mxCell id="dFNtb1b9l759t3CY5BOG-64" value="" style="html=1;verticalAlign=bottom;labelBackgroundColor=none;endArrow=open;endFill=0;rounded=0;movable=1;resizable=1;rotatable=1;deletable=1;editable=1;locked=0;connectable=1;entryX=1;entryY=0.5;entryDx=0;entryDy=0;" parent="1" target="dFNtb1b9l759t3CY5BOG-62" edge="1">
          <mxGeometry width="160" relative="1" as="geometry">
            <mxPoint x="-925" y="1020" as="sourcePoint" />
            <mxPoint x="-790" y="1070" as="targetPoint" />
            <Array as="points">
              <mxPoint x="-790" y="1020" />
              <mxPoint x="-790" y="1050" />
            </Array>
          </mxGeometry>
        </mxCell>
        <mxCell id="dFNtb1b9l759t3CY5BOG-70" value="" style="html=1;points=[];perimeter=orthogonalPerimeter;outlineConnect=0;targetShapes=umlLifeline;portConstraint=eastwest;newEdgeStyle={&quot;edgeStyle&quot;:&quot;elbowEdgeStyle&quot;,&quot;elbow&quot;:&quot;vertical&quot;,&quot;curved&quot;:0,&quot;rounded&quot;:0};" parent="1" vertex="1">
          <mxGeometry x="-634" y="1131" width="10" height="99" as="geometry" />
        </mxCell>
        <mxCell id="dFNtb1b9l759t3CY5BOG-71" value="" style="endArrow=none;dashed=1;html=1;rounded=0;fontFamily=Shadows Into Light;fontSize=14;strokeColor=#666666;strokeWidth=2;endFill=0;fontColor=#000000;" parent="1" source="dFNtb1b9l759t3CY5BOG-51" target="dFNtb1b9l759t3CY5BOG-55" edge="1">
          <mxGeometry width="50" height="50" relative="1" as="geometry">
            <mxPoint x="-1030" y="830" as="sourcePoint" />
            <mxPoint x="-1030" y="1095" as="targetPoint" />
          </mxGeometry>
        </mxCell>
        <mxCell id="dFNtb1b9l759t3CY5BOG-72" value="" style="endArrow=none;dashed=1;html=1;rounded=0;fontFamily=Shadows Into Light;fontSize=14;strokeColor=#666666;strokeWidth=2;endFill=0;fontColor=#000000;" parent="1" source="dFNtb1b9l759t3CY5BOG-55" edge="1">
          <mxGeometry width="50" height="50" relative="1" as="geometry">
            <mxPoint x="-900" y="1160" as="sourcePoint" />
            <mxPoint x="-930" y="1200" as="targetPoint" />
          </mxGeometry>
        </mxCell>
        <mxCell id="dFNtb1b9l759t3CY5BOG-73" value="" style="endArrow=none;dashed=1;html=1;rounded=0;fontFamily=Shadows Into Light;fontSize=14;strokeColor=#666666;strokeWidth=2;endFill=0;fontColor=#000000;" parent="1" source="dFNtb1b9l759t3CY5BOG-15" target="dFNtb1b9l759t3CY5BOG-45" edge="1">
          <mxGeometry width="50" height="50" relative="1" as="geometry">
            <mxPoint x="-589" y="890" as="sourcePoint" />
            <mxPoint x="-589" y="940" as="targetPoint" />
          </mxGeometry>
        </mxCell>
        <mxCell id="dFNtb1b9l759t3CY5BOG-74" value="commit(encrypted-credentials-file)" style="html=1;verticalAlign=bottom;labelBackgroundColor=none;endArrow=open;endFill=0;rounded=0;" parent="1" edge="1">
          <mxGeometry x="-0.0034" width="160" relative="1" as="geometry">
            <mxPoint x="-925" y="1141" as="sourcePoint" />
            <mxPoint x="-634" y="1141" as="targetPoint" />
            <mxPoint as="offset" />
          </mxGeometry>
        </mxCell>
        <mxCell id="dFNtb1b9l759t3CY5BOG-69" value="" style="sketch=0;pointerEvents=1;shadow=0;dashed=0;html=1;strokeColor=none;fillColor=#006633;labelPosition=center;verticalLabelPosition=bottom;verticalAlign=top;outlineConnect=0;align=center;shape=mxgraph.office.security.key_permissions;fontSize=10;rotation=90;" parent="1" vertex="1">
          <mxGeometry x="-864" y="994" width="10" height="20" as="geometry" />
        </mxCell>
        <mxCell id="dFNtb1b9l759t3CY5BOG-68" value="encrypt(public-key, credentials)" style="text;whiteSpace=wrap;html=1;verticalAlign=middle;align=center;spacing=0;fontSize=10;" parent="1" vertex="1">
          <mxGeometry x="-931" y="1003" width="154" height="20" as="geometry" />
        </mxCell>
        <mxCell id="dFNtb1b9l759t3CY5BOG-75" value="" style="html=1;verticalAlign=bottom;labelBackgroundColor=none;endArrow=open;endFill=0;rounded=0;movable=1;resizable=1;rotatable=1;deletable=1;editable=1;locked=0;connectable=1;dashed=1;" parent="1" target="dFNtb1b9l759t3CY5BOG-55" edge="1">
          <mxGeometry width="160" relative="1" as="geometry">
            <mxPoint x="-920" y="1080" as="sourcePoint" />
            <mxPoint x="-885" y="1110" as="targetPoint" />
            <Array as="points">
              <mxPoint x="-785" y="1080" />
              <mxPoint x="-785" y="1110" />
            </Array>
          </mxGeometry>
        </mxCell>
        <mxCell id="dFNtb1b9l759t3CY5BOG-76" value="&lt;span style=&quot;color: rgb(0, 0, 0); font-family: Helvetica; font-size: 11px; font-style: normal; font-variant-ligatures: normal; font-variant-caps: normal; font-weight: 400; letter-spacing: normal; orphans: 2; text-align: center; text-indent: 0px; text-transform: none; widows: 2; word-spacing: 0px; -webkit-text-stroke-width: 0px; background-color: rgb(255, 255, 255); text-decoration-thickness: initial; text-decoration-style: initial; text-decoration-color: initial; float: none; display: inline !important;&quot;&gt;encrypted-credentials-file&lt;/span&gt;" style="text;whiteSpace=wrap;html=1;" parent="1" vertex="1">
          <mxGeometry x="-914" y="1090" width="134" height="30" as="geometry" />
        </mxCell>
        <mxCell id="dFNtb1b9l759t3CY5BOG-77" value="" style="endArrow=none;dashed=1;html=1;rounded=0;fontFamily=Shadows Into Light;fontSize=14;strokeColor=#666666;strokeWidth=2;endFill=0;fontColor=#000000;" parent="1" source="dFNtb1b9l759t3CY5BOG-19" target="dFNtb1b9l759t3CY5BOG-84" edge="1">
          <mxGeometry width="50" height="50" relative="1" as="geometry">
            <mxPoint x="-230" y="950" as="sourcePoint" />
            <mxPoint x="-261" y="1190" as="targetPoint" />
          </mxGeometry>
        </mxCell>
        <mxCell id="dFNtb1b9l759t3CY5BOG-78" value="" style="endArrow=none;dashed=1;html=1;rounded=0;fontFamily=Shadows Into Light;fontSize=14;strokeColor=#666666;strokeWidth=2;endFill=0;fontColor=#000000;" parent="1" source="dFNtb1b9l759t3CY5BOG-70" edge="1">
          <mxGeometry width="50" height="50" relative="1" as="geometry">
            <mxPoint x="-570" y="1230" as="sourcePoint" />
            <mxPoint x="-629" y="1280" as="targetPoint" />
          </mxGeometry>
        </mxCell>
        <mxCell id="dFNtb1b9l759t3CY5BOG-81" value="" style="group" parent="1" vertex="1" connectable="0">
          <mxGeometry x="-629" y="1176" width="58" height="50" as="geometry" />
        </mxCell>
        <mxCell id="dFNtb1b9l759t3CY5BOG-79" value="" style="html=1;points=[];perimeter=orthogonalPerimeter;outlineConnect=0;targetShapes=umlLifeline;portConstraint=eastwest;newEdgeStyle={&quot;edgeStyle&quot;:&quot;elbowEdgeStyle&quot;,&quot;elbow&quot;:&quot;vertical&quot;,&quot;curved&quot;:0,&quot;rounded&quot;:0};" parent="dFNtb1b9l759t3CY5BOG-81" vertex="1">
          <mxGeometry width="10" height="50" as="geometry" />
        </mxCell>
        <mxCell id="dFNtb1b9l759t3CY5BOG-80" value="workflow" style="text;whiteSpace=wrap;html=1;verticalAlign=middle;align=center;spacing=0;fontSize=10;fillColor=#CCCCCC;spacingTop=1;spacingLeft=0;spacingBottom=2;spacingRight=0;" parent="dFNtb1b9l759t3CY5BOG-81" vertex="1">
          <mxGeometry x="10" width="48" height="10" as="geometry" />
        </mxCell>
        <mxCell id="dFNtb1b9l759t3CY5BOG-82" value="" style="html=1;verticalAlign=bottom;labelBackgroundColor=none;endArrow=open;endFill=0;rounded=0;movable=1;resizable=1;rotatable=1;deletable=1;editable=1;locked=0;connectable=1;" parent="1" source="dFNtb1b9l759t3CY5BOG-70" target="dFNtb1b9l759t3CY5BOG-80" edge="1">
          <mxGeometry width="160" relative="1" as="geometry">
            <mxPoint x="-610" y="1150" as="sourcePoint" />
            <mxPoint x="-560" y="1180" as="targetPoint" />
            <Array as="points">
              <mxPoint x="-520" y="1150" />
              <mxPoint x="-520" y="1181" />
            </Array>
          </mxGeometry>
        </mxCell>
        <mxCell id="dFNtb1b9l759t3CY5BOG-83" value="trigger" style="edgeLabel;html=1;align=center;verticalAlign=middle;resizable=0;points=[];" parent="dFNtb1b9l759t3CY5BOG-82" vertex="1" connectable="0">
          <mxGeometry x="-0.3043" y="-1" relative="1" as="geometry">
            <mxPoint as="offset" />
          </mxGeometry>
        </mxCell>
        <mxCell id="dFNtb1b9l759t3CY5BOG-84" value="" style="html=1;points=[];perimeter=orthogonalPerimeter;outlineConnect=0;targetShapes=umlLifeline;portConstraint=eastwest;newEdgeStyle={&quot;edgeStyle&quot;:&quot;elbowEdgeStyle&quot;,&quot;elbow&quot;:&quot;vertical&quot;,&quot;curved&quot;:0,&quot;rounded&quot;:0};" parent="1" vertex="1">
          <mxGeometry x="-266" y="1200" width="10" height="70" as="geometry" />
        </mxCell>
        <mxCell id="dFNtb1b9l759t3CY5BOG-85" value="updatePassword(encrypted-credentials-file)" style="html=1;verticalAlign=bottom;labelBackgroundColor=none;endArrow=open;endFill=0;rounded=0;" parent="1" target="dFNtb1b9l759t3CY5BOG-84" edge="1">
          <mxGeometry x="-0.0034" width="160" relative="1" as="geometry">
            <mxPoint x="-619" y="1219" as="sourcePoint" />
            <mxPoint x="-319" y="1219" as="targetPoint" />
            <mxPoint as="offset" />
          </mxGeometry>
        </mxCell>
        <mxCell id="dFNtb1b9l759t3CY5BOG-86" value="Server-Component" style="text;whiteSpace=wrap;html=1;verticalAlign=middle;align=center;spacing=0;fontSize=10;fillColor=#CCCCCC;spacingTop=1;spacingLeft=0;spacingBottom=2;spacingRight=0;" parent="1" vertex="1">
          <mxGeometry x="-255" y="1200" width="85" height="10" as="geometry" />
        </mxCell>
      </root>
    </mxGraphModel>
  </diagram>
</mxfile>
